<svg width="145" height="98" fill="none" xmlns="http://www.w3.org/2000/svg"><path d="M14.974 0C6.704 0 0 6.7 0 14.974v47.975c0 8.273 6.703 14.974 14.974 14.974h84.612l18.298 19.72v-19.72h12.142c8.271 0 14.974-6.7 14.974-14.974V14.974C145 6.7 138.297 0 130.026 0H14.974z" fill="url(#paint0_linear)"/><path d="M14.972 1.218c-7.516 0-13.63 6.115-13.63 13.63v47.975c0 7.515 6.114 13.63 13.63 13.63h85.194l16.371 17.638V76.453h13.487c7.515 0 13.633-6.115 13.633-13.63V14.848c0-7.515-6.118-13.63-13.633-13.63H14.972z" fill="url(#paint1_linear)"/><path d="M25.964 38.439c0 5.47 4.431 9.9 9.9 9.9 5.466 0 9.897-4.43 9.897-9.9 0-5.47-4.43-9.9-9.897-9.9-5.469 0-9.9 4.43-9.9 9.9zm36.9 0c0 5.47 4.435 9.9 9.9 9.9 5.467 0 9.901-4.43 9.901-9.9 0-5.47-4.434-9.9-9.9-9.9s-9.9 4.43-9.9 9.9zm46.804-9.9c5.466 0 9.898 4.43 9.898 9.9 0 5.47-4.432 9.9-9.898 9.9a9.898 9.898 0 01-9.9-9.9c0-5.47 4.431-9.9 9.9-9.9z" fill="#A64DA6"/><defs><linearGradient id="paint0_linear" x1="97.394" y1="-15.802" x2="41.32" y2="107.561" gradientUnits="userSpaceOnUse"><stop stop-color="#7D7FAC"/><stop offset="1" stop-color="#27244F"/></linearGradient><linearGradient id="paint1_linear" x1="112.226" y1="-17.641" x2="44.937" y2="78.015" gradientUnits="userSpaceOnUse"><stop stop-color="#3A3D72"/><stop offset="1" stop-color="#27244F"/></linearGradient></defs></svg>