<svg width="192" height="248" fill="none" xmlns="http://www.w3.org/2000/svg"><path d="M83.303 19.514C32.728 55.997-4.387 131.338.42 187.801c4.807 56.461 49.71 72.635 100.285 36.148 50.587-36.493 87.701-111.832 82.894-168.295C180.532 19.624 161.136-.002 134.354 0c-15.187 0-32.747 6.31-51.05 19.514z" fill="url(#paint0_linear)"/><path d="M83.885 20.407C33.692 56.614-3.267 131.614 1.496 187.593c2.908 34.154 20.879 54.547 48.071 54.547 15.455 0 32.865-6.672 50.357-19.287 50.198-36.213 87.163-111.215 82.397-167.194-2.908-34.154-20.877-54.546-48.069-54.546-15.455 0-32.873 6.673-50.368 19.294z" fill="url(#paint1_linear)"/><path d="M158.277 6.309l3.012 2.027 2.658 2.114 2.483 2.302c.323.326.649.65.966.985l2.256 2.576 2.082 2.742 1.936 2.95a55.857 55.857 0 011.783 3.151l1.638 3.393 1.487 3.628 1.372 4.007c.158.507.31 1.024.462 1.538l1.143 4.4.972 4.79c.314 1.818.562 3.703.783 5.62.114 1.016.235 2.027.323 3.07.152 1.756.261 3.53.33 5.32l.083 5.178-.129 5.357-.333 5.233c-.037.452-.069.904-.11 1.356l-.625 5.726a163.812 163.812 0 01-.594 4.132l-1.108 6.401c-.41 2.136-.862 4.275-1.36 6.423l-1.625 6.468-1.879 6.516c-.245.807-.501 1.613-.757 2.422a206.833 206.833 0 01-1.426 4.311c-.27.787-.538 1.575-.816 2.363l-2.431 6.529a228.258 228.258 0 01-3.07 7.436l-2.861 6.34c-.395.841-.795 1.68-1.197 2.515a280.146 280.146 0 01-1.694 3.434c-.444.879-.885 1.757-1.343 2.633-.526 1.015-1.067 2.024-1.609 3.036-.495.92-.988 1.836-1.494 2.748l-3.147 5.497c-.503.855-1.018 1.706-1.53 2.556a236.157 236.157 0 01-6.704 10.418l-3.534 5.04-3.649 4.911-3.768 4.794-3.889 4.667-4.026 4.557-4.156 4.42-4.362 4.356-4.557 4.242-4.827 4.183c-.56.466-1.127.914-1.691 1.372a156.036 156.036 0 01-3.729 2.943c-1.088.831-2.177 1.668-3.277 2.461a142.476 142.476 0 01-5.008 3.444l-4.957 3.094c-.56.335-1.122.661-1.68.979-1.08.623-2.16 1.21-3.23 1.782-.605.32-1.21.649-1.812.957l-4.878 2.337a93.6 93.6 0 01-4.791 1.982l-4.715 1.633-4.65 1.306c-.587.146-1.168.273-1.75.405-.954.211-1.905.403-2.845.574-.574.101-1.148.202-1.716.289l-4.414.525-4.281.197a53.945 53.945 0 01-4.147-.14l-4.028-.468-3.914-.79c-.493-.122-.98-.252-1.463-.39-.795-.223-1.58-.47-2.354-.733-.46-.158-.923-.314-1.375-.485l-3.545-1.524a42.225 42.225 0 01-3.372-1.826l6.98 4.232a42.906 42.906 0 003.372 1.824l3.547 1.524c.454.173.915.329 1.377.485.772.265 1.555.512 2.35.735.485.138.972.268 1.465.39l3.912.79 4.028.468c1.365.097 2.745.146 4.149.138l4.279-.197 4.416-.522a73.153 73.153 0 001.716-.292 72.454 72.454 0 002.849-.572c.581-.132 1.16-.259 1.747-.407l4.647-1.304 4.717-1.633a94.058 94.058 0 004.793-1.984l4.876-2.339 3.715-1.958 3.009-1.758 5.499-3.441a139.001 139.001 0 004.462-3.095c.783-.561 1.558-1.135 2.333-1.717l5.826-4.597 5.369-4.645 4.549-4.24 4.365-4.356 4.157-4.422 4.024-4.557 3.396-4.043 3.636-4.581 3.523-4.69 3.435-4.834 3.338-4.957 3.251-5.116 3.183-5.3 3.074-5.442 3.099-5.85 3.088-6.256 3.131-6.869c.095-.215.174-.432.269-.649a224.104 224.104 0 003.071-7.44l2.43-6.533c.28-.784.544-1.568.814-2.353l1.877-5.681 1.57-5.375c.205-.73.418-1.461.615-2.193l1.628-6.472c.497-2.15.949-4.291 1.363-6.427l1.248-7.242.54-3.958c.209-1.692.383-3.377.537-5.055l.37-5.241.111-2.106.09-4.599-.088-5.215c-.069-1.78-.178-3.54-.324-5.284l-.327-3.066a99.696 99.696 0 00-.779-5.623l-1.078-5.3-1.262-4.71-1.434-4.29-1.664-4.063-1.638-3.395-1.834-3.239-2.021-3.066-2.177-2.842-2.388-2.673-2.575-2.47-2.818-2.291-3.363-2.266-6.982-4.23z" fill="url(#paint2_linear)"/><defs><linearGradient id="paint0_linear" x1="50.499" y1="81.857" x2="171.803" y2="192.127" gradientUnits="userSpaceOnUse"><stop stop-color="#2B4763"/><stop offset="1" stop-color="#081B31"/></linearGradient><linearGradient id="paint1_linear" x1="38.292" y1="70.124" x2="157.739" y2="178.707" gradientUnits="userSpaceOnUse"><stop stop-color="#0E2135"/><stop offset="1" stop-color="#030C15"/></linearGradient><linearGradient id="paint2_linear" x1="61.221" y1="260.991" x2="181.677" y2="54.267" gradientUnits="userSpaceOnUse"><stop stop-color="#14273C"/><stop offset=".35" stop-color="#030F20"/><stop offset=".99" stop-color="#061A2E"/></linearGradient></defs></svg>