<svg width="962" height="853" viewBox="0 0 962 853" fill="none" xmlns="http://www.w3.org/2000/svg">
<path d="M0 109.094V202.567C0.00293786 204.127 1.23976 205.42 2.80857 205.476H2.83798C35.2132 206.645 67.5854 207.814 99.9606 208.987C99.99 208.987 100.034 208.99 100.066 208.99C100.854 208.99 101.559 208.669 102.085 208.164C102.634 207.635 102.984 206.898 102.984 206.072V114.411C102.981 112.866 101.77 111.561 100.204 111.479L100.172 111.476H100.143C67.8146 109.705 35.4864 107.933 3.1611 106.162H3.13169L3.09063 106.159C3.04069 106.156 2.9878 106.156 2.93786 106.156C1.31616 106.156 0 107.469 0 109.094ZM5.87572 199.709V112.193C36.2855 113.859 66.6952 115.525 97.1049 117.19V203.002C66.6952 201.906 36.2855 200.805 5.87572 199.709Z" fill="#56CCF2"/>
<path d="M100.039 111.555C98.414 111.555 97.0978 112.872 97.0978 114.493V206.158C97.0978 207.753 98.3787 209.048 99.9799 209.069H100.009C132.346 209.445 164.686 209.821 197.023 210.2H197.056C197.858 210.2 198.577 209.874 199.106 209.354C199.638 208.825 199.973 208.094 199.973 207.283V116.479C199.97 114.89 198.695 113.574 197.094 113.544H197.032C164.742 112.88 132.452 112.219 100.159 111.558H100.13C100.115 111.558 100.1 111.558 100.08 111.555H100.039ZM102.976 203.228V117.49L194.097 119.361V204.289C163.723 203.933 133.348 203.581 102.976 203.228Z" fill="#56CCF2"/>
<path d="M293.936 112.116H293.856L293.827 112.119C261.602 112.592 229.379 113.068 197.154 113.544H197.086C195.485 113.568 194.196 114.872 194.196 116.479V207.324C194.219 208.934 195.541 210.22 197.148 210.2L197.178 210.197C229.45 209.762 261.722 209.327 294 208.889C294.794 208.881 295.513 208.549 296.033 208.023C296.553 207.497 296.871 206.774 296.871 205.978V115.013C296.847 113.403 295.54 112.116 293.936 112.116ZM290.995 118.036V203.055C260.691 203.463 230.378 203.872 200.071 204.283V119.376H200.068L290.995 118.036Z" fill="#56CCF2"/>
<path d="M390.333 107.168L390.298 107.171H390.271C358.14 108.807 326.008 110.444 293.877 112.08L293.851 112.083L293.807 112.086C292.258 112.168 291.024 113.452 291.024 115.018V205.953C291.027 205.989 291.027 206.021 291.027 206.053C291.092 207.663 292.449 208.915 294.056 208.853H294.083C326.267 207.584 358.445 206.318 390.624 205.051C391.399 205.019 392.104 204.681 392.61 204.158C393.112 203.635 393.423 202.927 393.423 202.14V110.103C393.423 110.056 393.421 110 393.421 109.953C393.338 108.381 392.043 107.165 390.486 107.165C390.436 107.165 390.386 107.165 390.333 107.168ZM296.9 117.812C327.116 116.272 357.332 114.733 387.548 113.193V199.29C357.332 200.483 327.116 201.67 296.903 202.86H296.9V117.812Z" fill="#56CCF2"/>
<path d="M486.145 98.7269L486.11 98.7299L486.083 98.7328C454.072 101.556 422.067 104.382 390.056 107.206L390.027 107.208C390.015 107.211 389.997 107.211 389.983 107.214C388.487 107.35 387.315 108.607 387.315 110.138V202.186C387.315 202.245 387.318 202.307 387.321 202.369C387.427 203.973 388.814 205.189 390.421 205.083H390.45C422.508 202.965 454.566 200.85 486.624 198.734C487.382 198.682 488.063 198.335 488.557 197.815C489.042 197.295 489.341 196.596 489.341 195.829V101.653C489.341 101.568 489.338 101.48 489.332 101.394C489.197 99.8668 487.913 98.7152 486.406 98.7152C486.321 98.7152 486.233 98.7181 486.145 98.7269ZM393.191 112.829C423.283 110.173 453.376 107.514 483.465 104.861V193.05C453.376 195.039 423.283 197.028 393.191 199.014V112.829Z" fill="#56CCF2"/>
<path d="M581.88 86.4953L581.845 86.5012L581.816 86.5041C549.958 90.5407 518.102 94.5803 486.244 98.6198L486.215 98.6228L486.177 98.6257C484.728 98.8108 483.606 100.045 483.606 101.543V195.722C483.606 195.813 483.612 195.901 483.621 195.989C483.771 197.593 485.19 198.771 486.794 198.622L486.823 198.619C518.731 195.634 550.639 192.649 582.55 189.661C583.288 189.594 583.949 189.238 584.422 188.721C584.898 188.204 585.188 187.522 585.188 186.767V89.4097C585.188 89.2922 585.18 89.16 585.165 89.0425C584.977 87.5559 583.717 86.4718 582.256 86.4718C582.133 86.4718 582.007 86.4806 581.88 86.4953ZM489.482 104.128C519.427 100.336 549.37 96.5369 579.313 92.7441V184.064C549.37 186.864 519.427 189.667 489.482 192.467V104.128Z" fill="#56CCF2"/>
<path d="M676.984 70.7324L676.949 70.7412L676.919 70.7442C645.238 76.0206 613.559 81.3028 581.88 86.5792L581.85 86.5851L581.812 86.5909C580.42 86.8201 579.359 88.0306 579.359 89.4877V186.86C579.359 186.975 579.365 187.086 579.38 187.201C579.576 188.796 581.028 189.933 582.623 189.736H582.652C614.384 185.864 646.119 181.989 677.851 178.123C678.57 178.032 679.214 177.676 679.675 177.162C680.133 176.648 680.407 175.978 680.407 175.235V73.6321C680.407 73.4764 680.392 73.306 680.368 73.1473C680.128 71.7107 678.882 70.6942 677.472 70.6942C677.313 70.6942 677.149 70.706 676.984 70.7324ZM585.235 91.9761C614.998 87.0169 644.765 82.0579 674.531 77.0988V172.606C644.765 176.237 614.998 179.871 585.235 183.499V91.9761Z" fill="#56CCF2"/>
<path d="M771.476 51.1412L771.438 51.15L771.409 51.153C739.932 57.6985 708.456 64.2382 676.98 70.7838L676.951 70.7896L676.912 70.7955C675.576 71.0746 674.574 72.2556 674.574 73.6746V175.292C674.574 175.433 674.586 175.574 674.606 175.712C674.847 177.305 676.334 178.4 677.926 178.16L677.953 178.154C709.482 173.38 741.014 168.603 772.537 163.826C773.239 163.723 773.865 163.359 774.305 162.847C774.749 162.336 775.01 161.681 775.01 160.955V54.0144C775.01 53.8235 774.99 53.6149 774.949 53.418C774.661 52.0314 773.439 51.0795 772.075 51.0795C771.879 51.0795 771.676 51.1001 771.476 51.1412ZM680.45 76.0631L769.132 57.628V158.4C739.574 162.877 710.01 167.357 680.45 171.834V76.0631Z" fill="#56CCF2"/>
<path d="M865.079 27.5659L865.041 27.5777L865.012 27.5836C833.765 35.4159 802.524 43.2512 771.274 51.0835L771.244 51.0893L771.206 51.1011C769.928 51.4213 768.982 52.5759 768.982 53.9479V160.904C768.985 161.071 769 161.238 769.032 161.412C769.317 162.992 770.836 164.041 772.419 163.756L772.449 163.75C803.749 158.051 835.049 152.354 866.349 146.655C867.024 146.535 867.626 146.164 868.055 145.659C868.481 145.154 868.731 144.51 868.731 143.799V30.4157C868.731 30.1865 868.702 29.9338 868.643 29.7017C868.308 28.3679 867.11 27.4778 865.793 27.4778C865.558 27.4778 865.317 27.5072 865.079 27.5659ZM774.861 56.2423C804.189 48.8889 833.521 41.5354 862.856 34.1819V141.32C833.524 146.658 804.189 151.999 774.864 157.34H774.861V56.2423Z" fill="#56CCF2"/>
<path d="M958.062 0.120498L957.995 0.141029C927.006 9.29246 896.015 18.438 865.026 27.5894L864.997 27.5953L864.953 27.61C863.739 27.9684 862.852 29.0937 862.852 30.4245V143.823C862.855 144.02 862.873 144.22 862.917 144.416C863.255 145.991 864.803 146.996 866.375 146.658L866.404 146.652C897.448 140.015 928.493 133.376 959.537 126.733C960.195 126.592 960.771 126.225 961.182 125.72C961.588 125.22 961.831 124.589 961.831 123.898V2.94082C961.829 2.67053 961.79 2.38263 961.711 2.10648C961.332 0.828507 960.163 0 958.894 0C958.62 0 958.338 0.0382381 958.062 0.120498ZM868.728 32.619C897.804 24.0376 926.877 15.4532 955.956 6.86875V121.492C926.877 127.712 897.804 133.928 868.731 140.145H868.728V32.619Z" fill="#56CCF2"/>
<path d="M2.93786 199.687C1.31616 199.687 0 201 0 202.625V296.069C0 297.661 1.27796 298.981 2.87321 299.007H2.90262L100.005 300.708H100.072C100.865 300.705 101.579 300.379 102.102 299.865C102.643 299.333 102.987 298.593 102.984 297.77V206.135C102.981 204.561 101.735 203.256 100.152 203.198L100.128 203.195H100.099C67.7646 202.025 35.4305 200.859 3.09646 199.69L3.07001 199.687H2.93786ZM5.87571 293.184V205.668L97.1049 208.968V294.782C66.6952 294.248 36.2855 293.716 5.87571 293.184Z" fill="#56CCF2"/>
<path d="M100.127 203.19H100.039C98.414 203.19 97.0978 204.504 97.0978 206.131V297.786C97.0978 299.399 98.4052 300.704 100.015 300.704H100.045L197.041 300.977H197.061C197.863 300.971 198.586 300.645 199.112 300.119C199.647 299.587 199.976 298.85 199.973 298.039V207.259C199.97 205.652 198.677 204.339 197.067 204.319H197.014C164.718 203.943 132.42 203.569 100.127 203.19ZM102.976 294.837V209.098C133.348 209.454 163.722 209.809 194.097 210.162V295.09C163.722 295.004 133.348 294.922 102.976 294.837Z" fill="#56CCF2"/>
<path d="M293.936 203.014H293.842C261.611 203.449 229.379 203.886 197.148 204.318H197.089C195.488 204.342 194.196 205.649 194.196 207.259V298.089C194.216 299.705 195.541 300.997 197.154 300.977H197.183C229.45 300.58 261.719 300.184 293.983 299.787C294.779 299.772 295.499 299.44 296.025 298.911C296.551 298.38 296.877 297.651 296.871 296.849V205.911C296.85 204.304 295.54 203.014 293.936 203.014ZM290.995 208.928V293.946C260.691 294.317 230.378 294.69 200.071 295.063V210.156H200.068C230.378 209.747 260.688 209.336 290.995 208.928Z" fill="#56CCF2"/>
<path d="M390.371 199.194H390.315C358.178 200.46 326.041 201.726 293.904 202.993H293.842C292.276 203.057 291.024 204.347 291.024 205.93V296.854C291.024 296.878 291.027 296.901 291.027 296.922C291.074 298.538 292.417 299.807 294.033 299.766H294.062C326.235 298.867 358.407 297.974 390.583 297.078C391.367 297.057 392.078 296.719 392.592 296.196C393.109 295.667 393.423 294.951 393.423 294.157V202.129C393.423 202.094 393.423 202.047 393.421 202.014C393.359 200.434 392.06 199.191 390.491 199.191C390.453 199.191 390.412 199.194 390.371 199.194ZM296.9 208.754C327.116 207.564 357.332 206.377 387.548 205.184V291.284C357.332 292.127 327.116 292.968 296.9 293.805V208.754Z" fill="#56CCF2"/>
<path d="M486.212 192.845L486.159 192.851C454.14 194.963 422.126 197.075 390.115 199.19L390.083 199.193H390.047C388.523 199.299 387.315 200.571 387.315 202.125V294.165C387.315 294.204 387.315 294.242 387.318 294.283C387.386 295.896 388.752 297.147 390.365 297.074L390.394 297.071C422.443 295.667 454.498 294.265 486.55 292.861C487.326 292.829 488.025 292.485 488.53 291.962C489.036 291.436 489.341 290.725 489.341 289.944V195.777C489.341 195.718 489.341 195.644 489.335 195.586C489.236 194.029 487.94 192.839 486.406 192.839C486.342 192.839 486.277 192.842 486.212 192.845ZM393.191 204.875C423.283 202.886 453.376 200.9 483.465 198.914V287.118C453.376 288.434 423.283 289.75 393.191 291.069V204.875Z" fill="#56CCF2"/>
<path d="M581.977 183.943H581.951L581.919 183.946C550.055 186.928 518.191 189.907 486.327 192.889L486.3 192.892L486.262 192.895C484.769 193.039 483.606 194.293 483.606 195.818V289.994C483.606 290.05 483.609 290.103 483.612 290.159C483.709 291.772 485.096 293 486.708 292.903L486.738 292.9C518.637 290.975 550.539 289.051 582.442 287.13C583.205 287.08 583.896 286.736 584.389 286.213C584.886 285.687 585.188 284.988 585.188 284.212V186.867C585.188 186.775 585.185 186.681 585.174 186.59C585.033 185.069 583.752 183.929 582.254 183.929C582.162 183.929 582.071 183.935 581.977 183.943ZM489.482 198.495C519.427 195.692 549.37 192.892 579.313 190.092V281.43C549.37 283.237 519.427 285.044 489.482 286.848V198.495Z" fill="#56CCF2"/>
<path d="M677.113 172.328L677.055 172.334C645.37 176.203 613.682 180.069 581.997 183.933L581.939 183.938C580.484 184.115 579.359 185.354 579.359 186.856V284.21C579.359 284.281 579.362 284.354 579.365 284.431C579.494 286.038 580.898 287.242 582.508 287.116L582.538 287.113C614.264 284.66 645.987 282.204 677.713 279.751C678.462 279.689 679.138 279.34 679.628 278.82C680.11 278.3 680.407 277.606 680.407 276.839V175.245C680.407 175.131 680.398 175.004 680.383 174.89C680.201 173.4 678.938 172.307 677.475 172.307C677.354 172.307 677.234 172.313 677.113 172.328ZM585.235 189.459C614.998 185.825 644.765 182.193 674.531 178.565V274.101C644.765 276.405 614.998 278.711 585.235 281.011V189.459Z" fill="#56CCF2"/>
<path d="M771.632 157.985L771.576 157.991C740.091 162.762 708.612 167.53 677.127 172.298L677.098 172.301L677.071 172.307C675.658 172.519 674.574 173.741 674.574 175.213V276.813C674.574 276.901 674.577 276.992 674.586 277.08C674.741 278.687 676.166 279.868 677.77 279.715L677.8 279.712L772.366 270.722C773.107 270.652 773.771 270.293 774.247 269.776C774.723 269.256 775.01 268.572 775.01 267.817V160.888C775.01 160.749 774.996 160.591 774.978 160.447C774.755 158.993 773.503 157.95 772.075 157.95C771.929 157.95 771.779 157.962 771.632 157.985ZM680.45 177.736C710.01 173.262 739.571 168.782 769.132 164.307V265.126C739.574 267.937 710.01 270.749 680.45 273.56V177.736Z" fill="#56CCF2"/>
<path d="M865.267 140.887L865.238 140.893L865.212 140.899C833.959 146.589 802.706 152.28 771.456 157.968L771.426 157.974L771.397 157.976C770.025 158.226 768.982 159.425 768.982 160.867V267.799C768.982 267.905 768.994 268.014 769.003 268.126C769.182 269.73 770.633 270.881 772.237 270.699L772.267 270.696C803.558 267.147 834.849 263.598 866.14 260.049C866.872 259.967 867.521 259.606 867.988 259.092C868.455 258.575 868.731 257.899 868.731 257.147V143.778C868.731 143.61 868.717 143.425 868.684 143.252C868.426 141.833 867.189 140.84 865.796 140.84C865.623 140.84 865.444 140.855 865.267 140.887ZM774.861 163.32C804.189 157.979 833.521 152.638 862.856 147.3V254.506C833.524 257.834 804.189 261.163 774.861 264.488V163.32Z" fill="#56CCF2"/>
<path d="M958.28 121.016L958.25 121.022L958.224 121.028L865.232 140.914L865.208 140.92L865.176 140.926C863.845 141.208 862.852 142.389 862.852 143.799V257.189C862.855 257.31 862.861 257.433 862.879 257.556C863.09 259.155 864.556 260.28 866.16 260.068L866.19 260.065C897.225 255.952 928.261 251.839 959.299 247.729C960.013 247.632 960.653 247.271 961.106 246.757C961.564 246.243 961.831 245.576 961.831 244.835V123.887C961.831 123.693 961.808 123.475 961.767 123.273C961.473 121.895 960.251 120.952 958.896 120.952C958.691 120.952 958.485 120.972 958.28 121.016ZM868.728 146.176C897.804 139.957 926.877 133.74 955.956 127.521V242.244C926.877 246.093 897.804 249.95 868.731 253.802H868.728V146.176Z" fill="#56CCF2"/>
<path d="M3.03478 293.103H2.93786C1.3191 293.103 0 294.419 0 296.041V389.489C0 391.11 1.31616 392.426 2.93786 392.426H2.96718C35.3277 392.388 67.6912 392.353 100.052 392.315C100.863 392.312 101.594 391.986 102.123 391.457C102.655 390.922 102.984 390.188 102.984 389.377V297.739C102.972 296.141 101.685 294.822 100.081 294.801H100.052C67.7147 294.237 35.3747 293.67 3.03478 293.103ZM5.87572 299.032C36.2855 299.564 66.6952 300.095 97.1049 300.627V386.442L5.87572 386.548V299.032Z" fill="#56CCF2"/>
<path d="M100.089 294.778H100.039C98.414 294.778 97.0978 296.095 97.0978 297.716V389.378C97.1095 390.996 98.4316 392.304 100.047 392.292H100.077C132.405 392.098 164.73 391.901 197.056 391.704C197.86 391.698 198.589 391.369 199.118 390.838C199.647 390.309 199.973 389.577 199.973 388.769V297.99C199.967 296.365 198.651 295.049 197.029 295.052H197L100.089 294.778ZM102.976 300.663C133.348 300.748 163.723 300.833 194.097 300.919V385.849L102.976 386.398V300.663Z" fill="#56CCF2"/>
<path d="M293.939 293.911H293.856C261.619 294.308 229.379 294.705 197.139 295.101H197.113C195.506 295.119 194.196 296.429 194.196 298.039V388.854C194.213 390.476 195.541 391.774 197.16 391.754H197.189C229.45 391.398 261.713 391.04 293.971 390.684C294.773 390.673 295.496 390.341 296.022 389.812C296.55 389.28 296.874 388.551 296.871 387.747V296.811C296.85 295.204 295.543 293.911 293.939 293.911ZM200.071 300.939C230.378 300.566 260.691 300.195 290.995 299.822V384.841C260.691 385.176 230.378 385.511 200.071 385.849V300.939Z" fill="#56CCF2"/>
<path d="M390.483 291.22H390.359C358.213 292.116 326.07 293.012 293.927 293.905H293.877C292.294 293.949 291.024 295.247 291.024 296.843V387.74L291.027 387.793C291.054 389.412 292.388 390.704 294.006 390.678H294.039C326.205 390.155 358.369 389.629 390.536 389.109C391.335 389.094 392.057 388.759 392.58 388.231C393.1 387.699 393.423 386.976 393.423 386.171V294.157C393.423 294.134 393.423 294.099 393.421 294.075C393.379 292.48 392.072 291.22 390.483 291.22ZM296.9 299.701C327.116 298.858 357.332 298.018 387.548 297.178V383.28C357.332 383.771 327.116 384.262 296.9 384.755V299.701Z" fill="#56CCF2"/>
<path d="M486.277 286.967H486.233C454.21 288.368 422.191 289.773 390.168 291.174H390.141L390.118 291.177C388.558 291.251 387.315 292.534 387.315 294.112V386.196C387.351 387.812 388.693 389.099 390.312 389.064L390.338 389.061C422.387 388.37 454.431 387.68 486.474 386.989C487.27 386.969 487.984 386.634 488.504 386.105C489.024 385.573 489.344 384.851 489.341 384.052V289.902C489.341 289.861 489.341 289.811 489.338 289.77C489.274 288.195 487.972 286.964 486.409 286.964C486.365 286.964 486.321 286.964 486.277 286.967ZM393.191 296.924C423.283 295.607 453.376 294.288 483.465 292.969V381.175C453.376 381.825 423.283 382.474 393.191 383.123V296.924Z" fill="#56CCF2"/>
<path d="M582.071 281.254H582.057L582.027 281.257C550.154 283.178 518.285 285.099 486.415 287.024H486.359C484.822 287.121 483.606 288.396 483.606 289.959V384.108C483.606 384.129 483.609 384.17 483.609 384.19C483.653 385.809 485.002 387.09 486.62 387.046H486.65C518.546 386.179 550.442 385.316 582.333 384.452C583.126 384.431 583.84 384.09 584.354 383.565C584.871 383.033 585.188 382.316 585.188 381.517V284.186C585.188 284.13 585.188 284.062 585.183 284.009C585.089 282.449 583.793 281.248 582.254 281.248C582.192 281.248 582.133 281.248 582.071 281.254ZM489.482 292.723C519.427 290.916 549.37 289.113 579.313 287.306V378.658C549.37 379.466 519.427 380.277 489.482 381.091V292.723Z" fill="#56CCF2"/>
<path d="M677.243 273.795H677.222L677.196 273.798C645.502 276.251 613.808 278.704 582.115 281.157L582.059 281.163C580.549 281.281 579.359 282.547 579.359 284.089V381.421C579.359 381.447 579.359 381.494 579.362 381.521C579.412 383.139 580.766 384.411 582.385 384.356H582.414C614.134 383.316 645.851 382.276 677.569 381.239C678.356 381.209 679.067 380.871 679.578 380.343C680.095 379.814 680.407 379.097 680.407 378.301V276.724C680.407 276.651 680.404 276.571 680.398 276.498C680.277 274.959 678.994 273.786 677.475 273.786C677.398 273.786 677.319 273.789 677.243 273.795ZM585.235 286.81L674.531 279.897V375.457L585.235 378.383V286.81Z" fill="#56CCF2"/>
<path d="M771.791 264.835L771.776 264.838L771.746 264.841C740.258 267.834 708.771 270.825 677.28 273.822L677.218 273.828C675.734 273.972 674.574 275.226 674.574 276.751V378.327C674.574 378.359 674.574 378.409 674.577 378.445C674.641 380.063 676.002 381.324 677.62 381.262H677.65C709.161 380.043 740.679 378.827 772.19 377.607C772.971 377.575 773.677 377.231 774.188 376.705C774.699 376.18 775.013 375.463 775.01 374.672V267.758C775.01 267.67 775.007 267.573 774.996 267.482C774.852 265.96 773.571 264.82 772.073 264.82C771.981 264.82 771.887 264.826 771.791 264.835ZM680.45 279.421C710.01 276.613 739.574 273.801 769.132 270.99V371.846C739.574 372.989 710.01 374.129 680.45 375.272V279.421Z" fill="#56CCF2"/>
<path d="M865.461 254.217H865.447L865.417 254.223C834.156 257.769 802.897 261.315 771.638 264.858L771.609 264.864H771.591C770.125 265.031 768.982 266.274 768.982 267.781V374.695C768.985 374.734 768.985 374.789 768.985 374.831C769.061 376.449 770.427 377.701 772.046 377.63L772.076 377.627C803.364 376.226 834.646 374.825 865.928 373.423C866.707 373.385 867.409 373.044 867.914 372.518C868.423 371.99 868.734 371.276 868.731 370.488V257.137C868.731 257.028 868.725 256.914 868.711 256.805C868.543 255.307 867.271 254.199 865.796 254.199C865.685 254.199 865.573 254.205 865.461 254.217ZM774.861 270.407C804.189 267.082 833.521 263.753 862.856 260.427V367.68C833.524 368.996 804.189 370.306 774.861 371.619V270.407Z" fill="#56CCF2"/>
<path d="M958.506 241.927H958.491L958.462 241.932C927.456 246.04 896.455 250.147 865.449 254.254L865.402 254.26C863.966 254.451 862.852 255.682 862.852 257.174V370.525C862.855 370.572 862.855 370.637 862.858 370.681C862.94 372.3 864.315 373.543 865.934 373.46H865.963C896.993 371.874 928.02 370.284 959.049 368.698C959.819 368.657 960.521 368.313 961.024 367.787C961.526 367.261 961.834 366.548 961.832 365.766V244.838C961.832 244.715 961.823 244.577 961.805 244.45C961.611 242.975 960.348 241.9 958.897 241.9C958.767 241.9 958.638 241.909 958.506 241.927ZM868.728 259.748C897.804 255.893 926.877 252.042 955.956 248.19V362.975C926.877 364.462 897.804 365.948 868.728 367.435V259.748Z" fill="#56CCF2"/>
<path d="M100.046 386.455H100.005C67.6617 386.493 35.3159 386.531 2.97013 386.566H2.93786C1.3191 386.566 0 387.883 0 389.504V483.013C0.0352543 484.638 1.3808 485.925 3.0025 485.893H3.03182C35.3864 485.249 67.7411 484.609 100.099 483.968C100.895 483.951 101.618 483.616 102.14 483.084C102.66 482.558 102.984 481.829 102.984 481.03V389.393C102.978 387.774 101.665 386.455 100.046 386.455ZM5.87572 392.439L97.1049 392.336V478.148C66.6952 478.753 36.2855 479.356 5.87572 479.955V392.439Z" fill="#56CCF2"/>
<path d="M197.011 385.778H196.982C164.672 385.971 132.364 386.168 100.053 386.362H100.024C98.4081 386.374 97.0978 387.684 97.0978 389.3V480.988C97.1272 482.609 98.4609 483.899 100.086 483.876H100.115C132.434 483.394 164.754 482.915 197.073 482.433C197.875 482.421 198.601 482.086 199.124 481.555C199.647 481.023 199.973 480.3 199.973 479.495V388.692C199.961 387.076 198.645 385.778 197.032 385.775C197.026 385.775 197.017 385.775 197.011 385.778ZM102.976 392.223L194.097 391.671V476.601C163.723 477.051 133.348 477.503 102.976 477.956V392.223Z" fill="#56CCF2"/>
<path d="M293.936 384.803H293.868C261.622 385.161 229.379 385.517 197.133 385.875H197.104C195.497 385.893 194.196 387.2 194.196 388.813V479.628C194.216 481.247 195.544 482.546 197.166 482.531H197.198C229.45 482.211 261.705 481.893 293.959 481.576C294.764 481.567 295.493 481.238 296.019 480.704C296.545 480.172 296.871 479.443 296.871 478.635V387.703C296.85 386.093 295.543 384.803 293.936 384.803ZM200.071 391.716C230.378 391.381 260.691 391.046 290.995 390.711V475.727C260.691 476.029 230.378 476.326 200.071 476.626V391.716Z" fill="#56CCF2"/>
<path d="M390.483 383.248H390.4L293.953 384.817H293.924C292.32 384.843 291.024 386.15 291.024 387.754V478.669C291.036 480.291 292.361 481.601 293.983 481.59H294.012C326.173 481.44 358.334 481.287 390.494 481.137C391.305 481.137 392.04 480.805 392.569 480.276C393.094 479.745 393.423 479.01 393.423 478.199V386.133C393.394 384.529 392.084 383.248 390.483 383.248ZM296.9 390.645C327.116 390.152 357.332 389.664 387.548 389.17V475.276C357.332 475.417 327.116 475.558 296.9 475.702V390.645Z" fill="#56CCF2"/>
<path d="M486.336 381.161L486.306 381.164C454.278 381.854 422.252 382.545 390.224 383.235H390.194C388.602 383.27 387.315 384.575 387.315 386.173V478.187C387.315 479.808 388.634 481.125 390.256 481.125L486.403 481.186C487.217 481.186 487.952 480.857 488.483 480.328C489.015 479.794 489.341 479.059 489.341 478.248V384.028C489.306 382.43 487.996 381.161 486.403 381.161H486.336ZM393.191 475.252V389.049C423.283 388.4 453.376 387.751 483.465 387.098V475.31C453.376 475.29 423.283 475.269 393.191 475.252Z" fill="#56CCF2"/>
<path d="M582.165 378.517H582.133L486.503 381.108H486.474C484.89 381.152 483.606 382.451 483.606 384.046V478.196C483.612 479.812 484.919 481.128 486.535 481.134L486.562 481.137C518.452 481.33 550.337 481.527 582.227 481.724H582.251C583.058 481.724 583.787 481.395 584.319 480.866C584.854 480.335 585.188 479.597 585.188 478.786V381.37C585.138 379.775 583.834 378.514 582.254 378.514C582.224 378.514 582.195 378.517 582.165 378.517ZM489.482 475.276V386.908C519.427 386.094 549.37 385.283 579.313 384.472V475.828C549.37 475.643 519.427 475.461 489.482 475.276Z" fill="#56CCF2"/>
<path d="M677.366 375.351H677.337C645.637 376.388 613.935 377.428 582.235 378.468H582.206C580.628 378.521 579.359 379.816 579.359 381.406V478.737C579.365 480.341 580.658 481.657 582.268 481.675H582.297C614.005 482.048 645.716 482.424 677.428 482.8H677.469C678.277 482.8 678.999 482.474 679.531 481.951C680.072 481.416 680.407 480.679 680.407 479.862V378.286C680.407 378.259 680.407 378.212 680.404 378.186C680.351 376.596 679.046 375.348 677.469 375.348C677.433 375.348 677.401 375.348 677.366 375.351ZM585.235 475.831V384.247L674.531 381.321V476.889C644.765 476.536 614.998 476.184 585.235 475.831Z" fill="#56CCF2"/>
<path d="M771.952 371.764H771.923C740.426 372.983 708.929 374.202 677.432 375.419L677.4 375.422C675.837 375.483 674.574 376.776 674.574 378.357V479.933C674.577 481.531 675.864 482.844 677.465 482.871H677.494C709 483.429 740.508 483.99 772.014 484.548H772.07C772.875 484.548 773.597 484.225 774.126 483.702C774.673 483.17 775.01 482.43 775.01 481.613V374.578C774.946 372.998 773.639 371.761 772.07 371.761C772.032 371.761 771.993 371.761 771.952 371.764ZM680.45 477.045V381.183C710.01 380.04 739.574 378.894 769.132 377.754V478.623C739.574 478.094 710.01 477.571 680.45 477.045Z" fill="#56CCF2"/>
<path d="M865.655 367.61H865.626C834.358 369.012 803.094 370.41 771.826 371.812H771.799C770.239 371.885 768.982 373.172 768.982 374.749V481.661C768.991 483.247 770.26 484.564 771.858 484.596H771.885C803.164 485.342 834.438 486.088 865.72 486.835H865.793C866.592 486.835 867.312 486.511 867.841 485.994C868.39 485.46 868.731 484.722 868.731 483.897V370.545C868.731 370.504 868.731 370.448 868.728 370.407C868.655 368.835 867.356 367.607 865.796 367.607C865.749 367.607 865.702 367.607 865.655 367.61ZM774.861 478.788V377.558C804.189 376.242 833.524 374.929 862.856 373.615V480.891C833.524 480.189 804.189 479.49 774.861 478.788Z" fill="#56CCF2"/>
<path d="M958.735 362.726L958.706 362.729C927.694 364.316 896.684 365.899 865.672 367.486L865.646 367.489C864.098 367.571 862.852 368.852 862.852 370.424V483.775C862.858 485.355 864.115 486.669 865.708 486.713H865.737C896.755 487.65 927.779 488.59 958.8 489.524H958.894C959.687 489.524 960.404 489.207 960.932 488.693C961.482 488.158 961.831 487.415 961.831 486.586V365.661C961.831 365.614 961.829 365.55 961.829 365.506C961.743 363.937 960.445 362.723 958.894 362.723C958.841 362.723 958.788 362.723 958.735 362.726ZM868.728 480.925V373.212C897.804 371.728 926.877 370.238 955.956 368.752V483.563C926.877 482.679 897.804 481.804 868.728 480.925Z" fill="#56CCF2"/>
<path d="M99.99 478.115L99.9606 478.118C67.6089 478.759 35.2572 479.399 2.90549 480.037H2.87617C1.28386 480.072 1.3805e-07 481.376 1.3805e-07 482.977V576.422C1.3805e-07 576.454 -6.87181e-05 576.516 0.00286914 576.551C0.0733777 578.17 1.44544 579.43 3.06714 579.357H3.09646C35.4452 578.117 67.794 576.874 100.143 575.629C100.927 575.599 101.641 575.256 102.155 574.724C102.666 574.195 102.984 573.481 102.984 572.694V480.994C102.948 479.39 101.641 478.112 100.043 478.112C100.025 478.112 100.008 478.112 99.99 478.115ZM5.87572 485.857C36.2855 485.254 66.6952 484.649 97.1049 484.05V569.867L5.87572 573.369V485.857Z" fill="#56CCF2"/>
<path d="M197.038 476.637H196.967C164.648 477.119 132.332 477.601 100.018 478.08H99.9887C98.3905 478.106 97.0948 479.413 97.0978 481.017V572.658C97.0978 572.673 97.0978 572.723 97.1007 572.737C97.1448 574.362 98.4991 575.64 100.124 575.593H100.15C132.464 574.826 164.774 574.059 197.088 573.296C197.884 573.272 198.61 572.934 199.13 572.4C199.65 571.874 199.973 571.151 199.973 570.358V479.575L199.97 479.525C199.949 477.921 198.639 476.637 197.038 476.637ZM102.976 483.911C133.348 483.462 163.723 483.009 194.097 482.554V567.485C163.723 568.207 133.348 568.927 102.976 569.65V483.911Z" fill="#56CCF2"/>
<path d="M293.936 475.692H293.88C261.631 476.012 229.379 476.329 197.128 476.649H197.101C195.494 476.667 194.193 477.977 194.196 479.587V570.408C194.219 572.03 195.55 573.325 197.175 573.308H197.204C229.45 573.023 261.696 572.747 293.945 572.468H293.962C294.767 572.462 295.493 572.13 296.022 571.598C296.545 571.066 296.871 570.338 296.871 569.53V478.6C296.859 476.984 295.543 475.692 293.936 475.692ZM200.071 482.496C230.378 482.196 260.691 481.899 290.995 481.603V566.618C260.691 566.88 230.378 567.144 200.071 567.406V482.496Z" fill="#56CCF2"/>
<path d="M390.491 475.153H390.447C358.287 475.305 326.135 475.455 293.974 475.602H293.945C292.323 475.605 291.024 476.921 291.024 478.54V569.44C291.027 571.053 292.326 572.366 293.945 572.378H293.989C326.141 572.598 358.293 572.819 390.45 573.039H390.486C391.291 573.039 392.025 572.716 392.554 572.187C393.089 571.655 393.423 570.921 393.423 570.101V478.073C393.415 476.46 392.104 475.153 390.491 475.153ZM296.9 566.523V481.466C327.116 481.325 357.332 481.184 387.548 481.046V567.146C357.332 566.94 327.116 566.732 296.9 566.523Z" fill="#56CCF2"/>
<path d="M390.28 475.235H390.247C388.625 475.238 387.312 476.554 387.315 478.173V570.184C387.315 571.779 388.584 573.087 390.186 573.122H390.2L390.23 573.128C422.261 573.856 454.293 574.591 486.324 575.325H486.403C487.205 575.325 487.925 574.999 488.457 574.485C489 573.95 489.341 573.21 489.341 572.387V478.238C489.341 476.616 488.031 475.297 486.412 475.297H486.383C454.348 475.277 422.314 475.256 390.28 475.235ZM393.191 567.317V481.111C423.283 481.132 453.376 481.152 483.465 481.173V569.379C453.376 568.692 423.283 568.007 393.191 567.317Z" fill="#56CCF2"/>
<path d="M486.588 475.293H486.538C484.916 475.296 483.606 476.612 483.606 478.234V572.384C483.609 573.95 484.849 575.254 486.432 575.319H486.447L486.476 575.322C518.355 576.576 550.237 577.831 582.118 579.088H582.148C582.18 579.088 582.215 579.091 582.251 579.091C583.041 579.091 583.749 578.768 584.278 578.262C584.833 577.728 585.188 576.984 585.188 576.153V478.822C585.188 477.209 583.887 475.893 582.271 475.884H582.242C550.357 475.684 518.476 475.493 486.588 475.293ZM489.482 569.558V481.19C519.427 481.372 549.37 481.554 579.313 481.739V573.098C549.37 571.92 519.427 570.739 489.482 569.558Z" fill="#56CCF2"/>
<path d="M582.353 475.893H582.285C580.663 475.896 579.353 477.209 579.359 478.831V576.162C579.362 577.704 580.567 579.006 582.132 579.094H582.144L582.176 579.097C613.879 580.889 645.581 582.678 677.284 584.464L677.31 584.467C677.366 584.47 677.416 584.47 677.469 584.47C678.25 584.47 678.95 584.153 679.475 583.659C680.042 583.122 680.407 582.373 680.407 581.532V479.956C680.407 478.355 679.117 477.036 677.51 477.018H677.481C645.772 476.642 614.064 476.266 582.353 475.893ZM585.235 573.386V481.804C614.998 482.156 644.765 482.506 674.531 482.859V578.427C644.765 576.744 614.998 575.063 585.235 573.386Z" fill="#56CCF2"/>
<path d="M674.574 479.937V581.513C674.577 583.035 675.755 584.33 677.291 584.442L677.312 584.445L677.341 584.448C708.838 586.783 740.341 589.119 771.841 591.452H771.861C771.929 591.461 772.002 591.463 772.07 591.463C772.845 591.463 773.536 591.149 774.059 590.661C774.637 590.127 775.01 589.375 775.01 588.526V481.617C775.01 480.019 773.73 478.706 772.131 478.676H772.099C740.594 478.118 709.091 477.557 677.585 477.002H677.556L677.5 476.999C675.881 477.002 674.568 478.318 674.574 479.937ZM680.45 578.787V482.927C710.01 483.45 739.574 483.976 769.132 484.499V585.362C739.574 583.17 710.01 580.978 680.45 578.787Z" fill="#56CCF2"/>
<path d="M772.014 478.602H771.908C770.292 478.605 768.979 479.924 768.982 481.543V588.451C768.991 589.947 770.131 591.236 771.65 591.377H771.7C802.967 594.271 834.235 597.165 865.505 600.056L865.529 600.059C865.614 600.068 865.702 600.07 865.793 600.07C866.554 600.07 867.236 599.762 867.756 599.286C868.346 598.751 868.731 597.993 868.731 597.133V483.781C868.731 482.195 867.462 480.879 865.87 480.843H865.84C834.567 480.097 803.29 479.348 772.014 478.602ZM774.861 585.772V484.551C804.189 485.25 833.524 485.946 862.856 486.646V593.91C833.524 591.198 804.189 588.486 774.861 585.772Z" fill="#56CCF2"/>
<path d="M862.852 483.883V597.234C862.852 598.712 863.963 599.987 865.464 600.154L865.482 600.157L865.511 600.16C896.523 603.618 927.538 607.079 958.55 610.543H958.57C958.676 610.554 958.785 610.56 958.894 610.56C959.649 610.56 960.315 610.255 960.833 609.791C961.435 609.253 961.831 608.492 961.831 607.622V486.691C961.829 485.117 960.574 483.806 958.988 483.759L958.958 483.756C927.94 482.816 896.92 481.882 865.899 480.945H865.872C865.849 480.945 865.802 480.942 865.778 480.942C864.16 480.948 862.849 482.261 862.852 483.883ZM868.728 594.605V486.909C897.804 487.787 926.877 488.666 955.956 489.544V604.338C926.877 601.094 897.804 597.848 868.728 594.605Z" fill="#56CCF2"/>
<path d="M99.9459 569.644H99.9165C67.556 570.887 35.1984 572.133 2.84087 573.372H2.81155C1.25155 573.443 -0.00585521 574.736 2.05087e-05 576.31V669.755C2.05087e-05 669.808 0.00291031 669.872 0.00584817 669.922C0.0998596 671.544 1.4866 672.784 3.10536 672.687H3.15816C35.501 670.839 67.8469 668.997 100.187 667.149H100.219C100.989 667.105 101.682 666.758 102.179 666.232C102.678 665.706 102.984 664.998 102.984 664.217V572.579C102.984 572.547 102.981 572.485 102.981 572.45C102.919 570.878 101.623 569.641 100.06 569.641C100.022 569.641 99.9841 569.641 99.9459 569.644ZM5.87573 579.137C36.2855 577.97 66.6952 576.798 97.1049 575.629V661.444C66.6952 663.174 36.2855 664.91 5.87573 666.647V579.137Z" fill="#56CCF2"/>
<path d="M197.05 567.363H196.95C164.627 568.13 132.305 568.899 99.9829 569.666L99.9535 569.669C98.3729 569.713 97.089 571.015 97.0978 572.604V664.242C97.0978 664.268 97.0978 664.306 97.1008 664.336C97.1537 665.957 98.511 667.232 100.133 667.176H100.186C132.49 666.125 164.798 665.07 197.108 664.015H197.138C197.922 663.992 198.633 663.648 199.144 663.125C199.661 662.593 199.973 661.876 199.973 661.077V570.304C199.973 570.28 199.97 570.236 199.97 570.218C199.935 568.626 198.63 567.363 197.05 567.363ZM102.977 575.471C133.348 574.751 163.723 574.032 194.097 573.309V658.237L102.977 661.207V575.471Z" fill="#56CCF2"/>
<path d="M293.956 566.595H293.898C261.637 566.874 229.379 567.153 197.122 567.432H197.092C195.491 567.456 194.187 568.763 194.196 570.373V661.173C194.207 662.795 195.532 664.102 197.154 664.085H197.207C229.45 663.847 261.693 663.606 293.933 663.368H293.959C294.764 663.365 295.493 663.03 296.019 662.498C296.545 661.97 296.871 661.238 296.871 660.433V569.495C296.862 567.891 295.552 566.595 293.956 566.595ZM200.071 573.284C230.378 573.02 260.691 572.756 290.995 572.497V657.513C260.688 657.739 230.381 657.965 200.071 658.192V573.284Z" fill="#56CCF2"/>
<path d="M294 566.608H293.948C292.338 566.608 291.024 567.915 291.024 569.531V660.446C291.027 662.038 292.308 663.351 293.909 663.381H293.965C326.108 663.977 358.257 664.568 390.406 665.161H390.486C391.285 665.161 392.007 664.835 392.539 664.318C393.083 663.783 393.423 663.043 393.423 662.223V570.195C393.423 568.591 392.128 567.283 390.521 567.272L390.491 567.269C358.325 567.051 326.164 566.828 294 566.608ZM296.9 657.561V572.504C327.116 572.715 357.332 572.921 387.548 573.127V659.229C357.332 658.674 327.116 658.116 296.9 657.561Z" fill="#56CCF2"/>
<path d="M387.315 570.165V662.193C387.318 663.753 388.543 665.058 390.121 665.128L390.147 665.131H390.177C422.199 666.577 454.222 668.019 486.245 669.461L486.283 669.464H486.403C487.191 669.464 487.899 669.147 488.428 668.645C488.986 668.11 489.341 667.367 489.341 666.527V572.359C489.341 570.779 488.078 569.48 486.486 569.442H486.459C454.416 568.711 422.373 567.976 390.332 567.242H390.303C390.288 567.239 390.256 567.239 390.235 567.239C388.623 567.239 387.315 568.549 387.315 570.165ZM393.191 659.385V573.185C423.283 573.875 453.376 574.56 483.465 575.25V663.454C453.376 662.099 423.283 660.742 393.191 659.385Z" fill="#56CCF2"/>
<path d="M483.606 572.408V666.569C483.612 668.094 484.79 669.392 486.332 669.501H486.359L486.388 669.504C518.261 671.822 550.134 674.137 582.013 676.449L582.045 676.452C582.112 676.455 582.18 676.458 582.251 676.458C583.023 676.458 583.711 676.146 584.24 675.661C584.815 675.124 585.188 674.372 585.188 673.52V576.168C585.185 574.611 583.952 573.315 582.383 573.257L582.353 573.254C550.46 571.996 518.567 570.745 486.673 569.487H486.644C486.612 569.484 486.567 569.484 486.529 569.484C484.919 569.484 483.606 570.792 483.606 572.408ZM489.482 663.84V575.475C519.427 576.656 549.37 577.834 579.313 579.015V670.365C549.37 668.188 519.427 666.014 489.482 663.84Z" fill="#56CCF2"/>
<path d="M579.359 576.101V673.447C579.365 674.93 580.49 676.217 582 676.37L582.059 676.376C613.753 679.581 645.449 682.783 677.146 685.985L677.175 685.988C677.275 685.997 677.372 686.006 677.469 686.006C678.227 686.006 678.9 685.7 679.423 685.227C680.016 684.69 680.407 683.929 680.407 683.068V581.465C680.404 579.929 679.202 578.645 677.648 578.557H677.619C645.907 576.768 614.187 574.978 582.473 573.183H582.444C582.394 573.18 582.332 573.178 582.279 573.178C580.663 573.178 579.359 574.485 579.359 576.101ZM585.235 670.794V579.227C614.998 580.904 644.765 582.585 674.531 584.265V679.816C644.765 676.808 614.998 673.802 585.235 670.794Z" fill="#56CCF2"/>
<path d="M674.574 581.499V683.096C674.568 684.55 675.649 685.813 677.13 686.007L677.189 686.013C708.68 690.126 740.173 694.236 771.661 698.349L771.711 698.355C771.826 698.367 771.949 698.379 772.07 698.379C772.819 698.379 773.474 698.079 773.988 697.621C774.602 697.086 775.01 696.319 775.01 695.441V588.5C775.007 586.99 773.838 585.715 772.305 585.6L772.278 585.597C740.764 583.259 709.255 580.926 677.741 578.587H677.715C677.644 578.582 677.565 578.579 677.497 578.579C675.881 578.579 674.574 579.886 674.574 581.499ZM680.45 680.513V584.681C710.01 586.872 739.574 589.064 769.132 591.255V692.092C739.574 688.231 710.01 684.371 680.45 680.513Z" fill="#56CCF2"/>
<path d="M768.982 588.45V695.379C768.982 696.795 770.01 698.046 771.456 698.279L771.485 698.281L771.511 698.287C802.773 703.323 834.035 708.364 865.294 713.397L865.344 713.406C865.491 713.429 865.638 713.441 865.796 713.441C866.519 713.441 867.159 713.15 867.673 712.712C868.305 712.175 868.731 711.399 868.731 710.503V597.149L868.734 597.119C868.728 595.633 867.591 594.364 866.081 594.223H866.055C834.77 591.329 803.484 588.435 772.205 585.544L772.175 585.541C772.087 585.532 771.996 585.524 771.908 585.524C770.292 585.524 768.982 586.834 768.982 588.45ZM774.861 692.873V591.687C804.189 594.405 833.524 597.113 862.855 599.828V707.054C833.524 702.327 804.189 697.603 774.861 692.873Z" fill="#56CCF2"/>
<path d="M862.852 597.19V710.562C862.852 711.943 863.828 713.176 865.232 713.447L865.264 713.45L865.291 713.456L958.309 731.403L958.356 731.409C958.529 731.444 958.708 731.462 958.894 731.462C959.605 731.462 960.23 731.177 960.739 730.76C961.385 730.219 961.831 729.435 961.831 728.524V607.575C961.834 606.109 960.73 604.843 959.237 604.679L959.208 604.673C928.181 601.212 897.152 597.751 866.128 594.287L866.099 594.284C865.993 594.276 865.884 594.27 865.772 594.27C864.159 594.27 862.852 595.574 862.852 597.19ZM868.728 708.135V600.492H868.731C897.804 603.738 926.877 606.979 955.956 610.225V724.963C926.877 719.355 897.804 713.746 868.728 708.135Z" fill="#56CCF2"/>
<path d="M99.8989 661.298L99.8695 661.301C67.5061 663.146 35.1397 664.994 2.77917 666.839H2.74985C1.21922 666.933 0 668.202 0 669.75V763.221C0 763.289 0.0029106 763.371 0.00878632 763.444C0.132176 765.06 1.54234 766.274 3.1611 766.15L3.22279 766.144C35.5598 763.697 67.8968 761.253 100.234 758.8L100.275 758.797C101.033 758.741 101.712 758.388 102.196 757.868C102.687 757.342 102.984 756.643 102.984 755.868V664.201C102.984 664.145 102.981 664.095 102.978 664.042C102.89 662.491 101.603 661.292 100.069 661.292C100.013 661.292 99.9577 661.295 99.8989 661.298ZM5.87572 672.547C36.2855 670.811 66.6952 669.08 97.1049 667.341V753.144C66.6952 755.448 36.2855 757.751 5.87572 760.051V672.547Z" fill="#56CCF2"/>
<path d="M197.056 658.225H196.932C164.604 659.28 132.276 660.335 99.9446 661.386L99.9182 661.389C98.3552 661.439 97.0978 662.723 97.0978 664.301V755.959C97.0978 755.997 97.1008 756.047 97.1037 756.082C97.1654 757.704 98.5374 758.964 100.159 758.894H100.221C132.52 757.554 164.824 756.217 197.123 754.881L197.164 754.878C197.943 754.842 198.645 754.505 199.153 753.976C199.664 753.45 199.973 752.733 199.973 751.943V661.128C199.973 661.098 199.97 661.075 199.97 661.046C199.92 659.465 198.624 658.225 197.056 658.225ZM102.976 667.165C133.348 666.178 163.723 665.188 194.094 664.198H194.097V749.125C163.723 750.383 133.348 751.64 102.976 752.898V667.165Z" fill="#56CCF2"/>
<path d="M293.956 657.49H293.906C261.643 657.727 229.379 657.968 197.116 658.206H197.086C195.488 658.221 194.196 659.52 194.196 661.121V751.942C194.204 753.566 195.529 754.874 197.151 754.862H197.213C229.45 754.662 261.684 754.459 293.918 754.263L293.953 754.26C294.758 754.257 295.49 753.922 296.019 753.393C296.545 752.861 296.871 752.13 296.871 751.325V660.38C296.862 658.776 295.557 657.49 293.956 657.49ZM200.071 664.062C230.378 663.835 260.688 663.609 290.995 663.386V748.405C260.688 748.593 230.381 748.781 200.071 748.969V664.062Z" fill="#56CCF2"/>
<path d="M294.024 657.482H293.939C292.332 657.482 291.024 658.78 291.024 660.393V751.314C291.027 752.894 292.285 754.205 293.877 754.252H293.909L293.939 754.255C326.082 755.218 358.219 756.185 390.359 757.145H390.412C390.436 757.148 390.459 757.148 390.486 757.148C391.279 757.148 391.999 756.828 392.524 756.314C393.077 755.782 393.423 755.039 393.423 754.21V662.17C393.423 660.587 392.151 659.291 390.562 659.262L390.533 659.259C358.363 658.668 326.193 658.072 294.024 657.482ZM296.9 748.467V663.41H296.903C327.116 663.965 357.332 664.524 387.548 665.079V751.184C357.332 750.277 327.116 749.372 296.9 748.467Z" fill="#56CCF2"/>
<path d="M387.315 662.153V754.194C387.318 755.721 388.505 757.02 390.053 757.123L390.092 757.126L390.121 757.128C422.138 759.285 454.154 761.441 486.171 763.598L486.215 763.601C486.277 763.601 486.342 763.604 486.403 763.604C487.182 763.604 487.878 763.292 488.401 762.802C488.971 762.264 489.341 761.512 489.341 760.666V666.481C489.341 664.941 488.122 663.652 486.562 663.581H486.533C454.486 662.136 422.437 660.693 390.388 659.245H390.359C390.318 659.242 390.265 659.242 390.227 659.242C388.62 659.242 387.315 660.546 387.315 662.153ZM393.191 751.45V665.253C423.283 666.61 453.376 667.964 483.465 669.325V757.525C453.376 755.501 423.283 753.474 393.191 751.45Z" fill="#56CCF2"/>
<path d="M483.606 666.443V760.622C483.612 762.103 484.731 763.387 486.238 763.545L486.277 763.551L486.303 763.554C518.17 766.924 550.037 770.3 581.904 773.672L581.945 773.675C582.045 773.684 582.148 773.69 582.251 773.69C583.006 773.69 583.678 773.387 584.195 772.917C584.795 772.383 585.188 771.622 585.188 770.752V673.386C585.185 671.879 584.016 670.606 582.491 670.495L582.459 670.489C550.56 668.177 518.661 665.859 486.761 663.541H486.729C486.664 663.535 486.591 663.532 486.52 663.532C484.913 663.532 483.606 664.839 483.606 666.443ZM489.482 757.981V669.631C519.427 671.805 549.37 673.979 579.313 676.153V767.491C549.37 764.321 519.427 761.151 489.482 757.981Z" fill="#56CCF2"/>
<path d="M579.359 673.379V770.737C579.359 772.174 580.411 773.431 581.874 773.646L581.909 773.651L581.939 773.654C613.629 778.27 645.317 782.888 677.008 787.501L677.063 787.512C677.195 787.53 677.331 787.542 677.469 787.542C678.2 787.542 678.855 787.248 679.367 786.801C679.989 786.261 680.407 785.488 680.407 784.601V682.983C680.401 681.517 679.284 680.254 677.789 680.104L677.76 680.101C646.04 676.896 614.317 673.691 582.594 670.486L582.564 670.483C582.47 670.471 582.37 670.468 582.273 670.468C580.663 670.468 579.359 671.77 579.359 673.379ZM585.235 768.196V676.658C614.998 679.666 644.765 682.672 674.531 685.68V781.205C644.765 776.868 614.998 772.535 585.235 768.196Z" fill="#56CCF2"/>
<path d="M674.574 683.073V784.676C674.574 786.065 675.558 787.302 676.974 787.567L677.009 787.57L677.039 787.576C708.521 793.466 740.009 799.348 771.494 805.235L771.55 805.244C771.717 805.276 771.894 805.294 772.07 805.294C772.79 805.294 773.412 805.009 773.924 804.586C774.57 804.045 775.011 803.264 775.011 802.356V695.447L775.013 695.418C775.013 693.975 773.944 692.727 772.481 692.536L772.455 692.53C740.931 688.417 709.414 684.301 677.894 680.188L677.864 680.185C677.747 680.17 677.609 680.159 677.485 680.159C675.878 680.159 674.574 681.466 674.574 683.073ZM680.45 782.237V686.449C710.01 690.306 739.574 694.166 769.132 698.024V798.819C739.574 793.29 710.01 787.764 680.45 782.237Z" fill="#56CCF2"/>
<path d="M768.982 695.365V802.304C768.982 803.64 769.905 804.854 771.265 805.168L771.303 805.177L771.332 805.183C802.588 812.363 833.844 819.543 865.097 826.729L865.15 826.738C865.359 826.785 865.57 826.811 865.796 826.811C866.484 826.811 867.092 826.538 867.594 826.135C868.267 825.595 868.731 824.802 868.731 823.873V710.519L868.734 710.49C868.734 709.088 867.718 707.854 866.29 707.622L866.26 707.616C834.969 702.578 803.681 697.534 772.387 692.492L772.358 692.486C772.217 692.466 772.049 692.448 771.899 692.448C770.289 692.448 768.982 693.756 768.982 695.365ZM774.861 799.965V698.841H774.864C804.189 703.568 833.524 708.295 862.855 713.019V820.183C833.524 813.444 804.189 806.704 774.861 799.965Z" fill="#56CCF2"/>
<path d="M862.852 710.506V823.89C862.855 825.176 863.707 826.363 865.014 826.722L865.053 826.73L865.082 826.742C896.079 835.241 927.08 843.747 958.077 852.246L958.13 852.263C958.374 852.328 958.629 852.363 958.894 852.363C959.563 852.363 960.151 852.102 960.647 851.72C961.344 851.185 961.831 850.377 961.831 849.425V728.468C961.831 727.102 960.868 725.886 959.478 725.615L959.449 725.612C928.416 719.625 897.384 713.635 866.345 707.653L866.319 707.644C866.143 707.609 865.952 707.592 865.767 707.592C864.157 707.592 862.852 708.899 862.852 710.506ZM868.728 821.648V714.093H868.731C897.804 719.704 926.877 725.313 955.956 730.924V845.574C926.877 837.598 897.804 829.624 868.728 821.648Z" fill="#56CCF2"/>
</svg>
