<svg width="246" height="246" fill="none" xmlns="http://www.w3.org/2000/svg"><path d="M117.98.105l-3.229.164c-.338.02-.686.043-.975.065l-3.195.284c-1.13.116-2.222.245-3.262.38l-1.844.256c-.821.12-1.598.237-2.321.357a123.804 123.804 0 00-4.86.888 122.71 122.71 0 00-10.548 2.668 83.25 83.25 0 00-6.192 2.027 123.134 123.134 0 00-27.05 13.661l-2.859 1.981a126.074 126.074 0 00-4.262 3.177l-2.017 1.597c-.776.63-1.52 1.253-2.239 1.87-.405.345-.81.694-1.214 1.047l-3.045 2.753c-3.81 3.556-6.129 6.146-6.276 6.312a112.118 112.118 0 00-3.494 3.991l-2.698 3.26-.127.173a114.872 114.872 0 00-5.474 7.53l-.172.25a94.053 94.053 0 00-2.743 4.428c-.807 1.352-1.6 2.698-2.302 3.847l-4.419 8.745c-1.24 2.515-2.561 5.81-3.817 9.373l-.02.062a151.191 151.191 0 00-2.98 9.474l-.068.242c-1.13 4.081-2.014 7.963-2.436 10.962C.232 113.301.101 114.228.01 121.754c-.116 9.482.878 16.237 1.355 19.483a118.804 118.804 0 004.38 18.839c2.641 8.334 4.993 13.2 7.267 17.905 1.409 2.911 2.496 4.946 3.907 7.263a115.433 115.433 0 005.506 8.441c.222.336.445.667.686 1.025 1.943 2.902 4.84 6.58 7.225 9.134 1.769 1.895 4.063 4.485 5.9 6.312 1.825 1.82 4.292 4.182 6.287 5.851l.002.002c2.182 1.889 3.092 2.666 5.14 4.2a110.384 110.384 0 007.59 5.483l2.532 1.622a89.04 89.04 0 002.842 1.698l2.203 1.235 3.337 1.783c2.978 1.547 6.735 3.367 10.889 5.025l4.865 1.868 2.179.755 2.99.955 2.854.832a115.08 115.08 0 0015.186 3.227l3.15.426 2.705.299c1.218.118 2.848.235 4.07.332 1.13.088 2.503.148 3.804.191l1.933.049c1.697.033 3.958-.017 5.652-.028 1.736-.008 4.047-.21 5.783-.299 3.686-.346 8.592-.94 12.245-1.549 2.855-.475 6.642-1.266 9.426-2.06.701-.201 1.439-.42 2.192-.652 2.195-.641 4.465-1.343 6.357-1.91l2.22-.844a118.42 118.42 0 005.276-2.007l.88-.334c2.052-.793 4.518-1.981 6.745-3.097.951-.469 1.893-.949 2.827-1.44 2.53-1.307 5.676-3.039 7.948-4.58l.237-.165a120.229 120.229 0 006.2-4.206c.439-.305.893-.619 1.298-.897l7.343-5.858c1.28-1.024 3.583-3.031 6.965-6.505l.504-.527a181.899 181.899 0 006.086-6.652l.162-.194c2.27-2.605 6.087-7.357 10.213-14.015a125.383 125.383 0 002.969-5.049l1.229-2.261a68.638 68.638 0 001.566-3.034l.444-.944a124.195 124.195 0 002.336-5.103c1.061-2.407 2.068-4.858 2.778-6.996.002-.006.004-.013.009-.019a124.517 124.517 0 003.522-11.458c.662-2.461 1.23-4.933 1.611-7.224.478-2.489.887-5.049 1.22-7.674.084-.604.153-1.18.215-1.755.396-3.543.637-7.207.715-10.984l.017-.656c.049-2.971-.006-6.007-.185-9.115l-.007-.31c-.023-.555-.185-3.946-.867-8.941l-.492-3.28a122.457 122.457 0 00-16.609-44.783c-.019-.03-.041-.063-.058-.093a117.297 117.297 0 00-2.814-4.352c-.004-.004-.004-.011-.008-.015a123.078 123.078 0 00-15.875-19.026c-2.765-2.754-6.181-5.78-9.146-8.095a121.918 121.918 0 00-6.152-4.6l-1.665-1.163a109.21 109.21 0 00-4.417-2.868l-2.591-1.543-2.87-1.61a123.937 123.937 0 00-15.109-7.005c-1.353-.53-2.396-.913-3.001-1.128l-2.205-.763-2.989-.956-4.069-1.165-2.442-.63-3.066-.713-4.841-.964-4.088-.658-2.253-.299-3.143-.357-4.071-.334-2.706-.144-2.86-.08a120.738 120.738 0 00-7.404.082z" fill="url(#paint0_radial)"/><defs><radialGradient id="paint0_radial" cx="0" cy="0" r="1" gradientUnits="userSpaceOnUse" gradientTransform="rotate(-.355 23504.096 -17860.165) scale(148.074 148.093)"><stop stop-color="#1D2A3E"/><stop offset=".71" stop-color="#111C24"/><stop offset="1" stop-color="#18232C"/></radialGradient></defs></svg>