<svg width="429" height="210" fill="none" xmlns="http://www.w3.org/2000/svg"><path d="M407.7 210H20.842C9.332 210 0 200.669 0 189.156V20.844C0 9.334 9.331 0 20.842 0H407.7c11.511 0 20.844 9.333 20.844 20.844v168.312c0 11.513-9.333 20.844-20.844 20.844z" fill="#2A2E4A"/><path d="M403.965 2.365H24.575c-11.512 0-20.843 9.333-20.843 20.844v71.657a6.998 6.998 0 004.704 6.613 3.709 3.709 0 010 7.008 6.997 6.997 0 00-4.704 6.611v71.657c0 11.513 9.331 20.846 20.842 20.846h379.391c11.511 0 20.844-9.333 20.844-20.846V23.209c0-11.511-9.333-20.844-20.844-20.844z" fill="#131039"/><path d="M24.574 2.365c-11.509 0-20.842 9.331-20.842 20.844v71.657a6.995 6.995 0 004.704 6.611 3.709 3.709 0 010 7.01 6.995 6.995 0 00-4.704 6.611v71.657c0 11.513 9.333 20.844 20.842 20.844h252.01V2.365H24.574z" fill="url(#paint0_linear)"/><path d="M344.447 81.76h-50.135a5.956 5.956 0 01-5.956-5.955V41.873a5.956 5.956 0 015.956-5.956h50.135a5.955 5.955 0 015.954 5.956v33.932a5.955 5.955 0 01-5.954 5.956zM406.505 46.75h-40.348a2.978 2.978 0 110-5.955h40.348a2.977 2.977 0 012.977 2.978 2.976 2.976 0 01-2.977 2.977zM406.505 61.825h-40.348a2.978 2.978 0 110-5.954h40.348a2.976 2.976 0 110 5.954zM386.945 76.829h-20.788a2.978 2.978 0 110-5.956h20.788a2.977 2.977 0 010 5.956zM344.447 138.886h-50.135a5.955 5.955 0 01-5.956-5.954V99a5.955 5.955 0 015.956-5.956h50.135A5.954 5.954 0 01350.401 99v33.932a5.953 5.953 0 01-5.954 5.954zM406.505 103.951h-40.348a2.978 2.978 0 110-5.955h40.348a2.976 2.976 0 012.977 2.977 2.976 2.976 0 01-2.977 2.978zM406.505 118.954h-40.348a2.978 2.978 0 010-5.956h40.348a2.975 2.975 0 012.977 2.977 2.977 2.977 0 01-2.977 2.979zM386.945 133.956h-20.788a2.978 2.978 0 110-5.956h20.788a2.977 2.977 0 010 5.956zM344.447 196.015h-50.135a5.957 5.957 0 01-5.956-5.956v-33.932a5.957 5.957 0 015.956-5.956h50.135a5.955 5.955 0 015.954 5.956v33.932a5.955 5.955 0 01-5.954 5.956zM406.505 161.078h-40.348a2.978 2.978 0 110-5.955h40.348a2.976 2.976 0 012.977 2.977 2.976 2.976 0 01-2.977 2.978zM406.505 176.079h-40.348a2.978 2.978 0 110-5.954h40.348a2.975 2.975 0 012.977 2.976 2.976 2.976 0 01-2.977 2.978zM386.945 191.082h-20.788a2.977 2.977 0 110-5.954h20.788a2.976 2.976 0 012.977 2.977 2.976 2.976 0 01-2.977 2.977z" fill="#484F8B"/><path fill-rule="evenodd" clip-rule="evenodd" d="M87.806 106.535c0 28.818 23.397 52.214 52.216 52.214 28.818 0 52.214-23.396 52.214-52.214 0-28.82-23.396-52.216-52.214-52.216-28.819 0-52.216 23.396-52.216 52.216z" fill="url(#paint1_linear)"/><path fill-rule="evenodd" clip-rule="evenodd" d="M88.762 106.541c0 28.292 22.969 51.262 51.26 51.262 28.293 0 51.262-22.97 51.262-51.262 0-28.291-22.969-51.261-51.262-51.261-28.291 0-51.26 22.97-51.26 51.261z" fill="url(#paint2_linear)"/><path d="M169.016 107.044l-21.79 12.58-21.789 12.58v-50.32l21.789 12.58 21.79 12.58z" fill="#131039"/><defs><linearGradient id="paint0_linear" x1="173.121" y1="16.498" x2="110.981" y2="199.688" gradientUnits="userSpaceOnUse"><stop stop-color="#272948"/><stop offset="1" stop-color="#0F0D2E"/></linearGradient><linearGradient id="paint1_linear" x1="169.003" y1="63.247" x2="110.431" y2="150.728" gradientUnits="userSpaceOnUse"><stop stop-color="#252645"/><stop offset="1" stop-color="#736FAA"/></linearGradient><linearGradient id="paint2_linear" x1="168.433" y1="63.392" x2="111.749" y2="149.481" gradientUnits="userSpaceOnUse"><stop stop-color="#484F8B"/><stop offset="1" stop-color="#131039"/></linearGradient></defs></svg>