<svg xmlns="http://www.w3.org/2000/svg" width="933.333" height="933.333" preserveAspectRatio="xMidYMid meet" version="1.0" viewBox="0 0 700 700"><metadata>Created by potrace 1.11, written by Peter Selinger 2001-2013</metadata><g fill="#000" stroke="none"><path d="M1120 6993 c-340 -37 -657 -218 -863 -491 -117 -156 -191 -318 -233 -512 -18 -82 -19 -179 -19 -2485 0 -2580 -3 -2433 52 -2615 140 -472 564 -824 1058 -881 60 -7 873 -9 2450 -7 l2360 3 102 27 c525 140 879 527 958 1048 13 81 15 445 15 2419 0 2577 4 2427 -66 2640 -43 132 -105 249 -196 368 -177 234 -414 386 -726 465 l-87 22 -2385 2 c-1312 0 -2401 -1 -2420 -3z m2823 -1763 c447 -33 788 -172 1080 -440 l69 -63 -118 -118 -117 -117 -72 62 c-300 263 -684 383 -1103 347 -386 -33 -689 -169 -948 -426 -224 -223 -353 -480 -400 -797 -24 -164 -15 -433 19 -578 69 -289 194 -509 400 -707 211 -201 474 -334 772 -389 149 -28 441 -26 590 4 257 51 451 144 650 312 l92 78 113 -113 113 -113 -22 -28 c-12 -15 -52 -54 -89 -86 -237 -206 -548 -340 -902 -389 -132 -19 -457 -16 -590 5 -602 94 -1084 434 -1340 945 -175 351 -230 789 -150 1205 103 531 445 976 935 1216 199 97 396 155 615 179 186 21 241 23 403 11z" transform="translate(0.000000,700.000000) scale(0.100000,-0.100000)"/></g></svg>