<svg width="120" height="121" fill="none" xmlns="http://www.w3.org/2000/svg"><path fill-rule="evenodd" clip-rule="evenodd" d="M0 60c0 33.118 26.886 60.004 60 60.004 33.114 0 60-26.886 60-60.004 0-33.114-26.886-60-60-60C26.886 0 0 26.886 0 60z" fill="url(#paint0_linear)"/><path d="M60 118.364c-32.186 0-58.371-26.19-58.371-58.376C1.629 27.8 27.814 1.616 60 1.616c32.187 0 58.376 26.185 58.376 58.372 0 32.186-26.189 58.376-58.376 58.376z" fill="#0F1A2D"/><path d="M80.798 39.18c0 11.484-9.308 20.796-20.796 20.796-11.484 0-20.796-9.312-20.796-20.795 0-11.489 9.312-20.796 20.796-20.796 11.488 0 20.796 9.307 20.796 20.796zM60.006 114.641c15.791 0 29.976-6.722 39.968-17.42-5.813-16.488-21.489-28.33-39.968-28.33-18.479 0-34.155 11.842-39.967 28.33 9.991 10.698 24.18 17.42 39.967 17.42z" fill="#443F80"/><defs><linearGradient id="paint0_linear" x1="82.085" y1="1.893" x2="39.878" y2="112.963" gradientUnits="userSpaceOnUse"><stop stop-color="#34385E"/><stop offset="1" stop-color="#202552"/></linearGradient></defs></svg>