<svg xmlns="http://www.w3.org/2000/svg"  fill="none"  ><path fill-rule="evenodd" d="M7.75 1A6.75 6.75 0 0 0 1 7.75v13.5A6.75 6.75 0 0 0 7.75 28h13.5A6.75 6.75 0 0 0 28 21.25V7.75A6.75 6.75 0 0 0 21.25 1H7.75zm1.79 20.25h5.864c3.044 0 4.874-1.532 4.874-4.043 0-1.86-1.284-3.233-3.213-3.432v-.17c1.404-.236 2.5-1.57 2.5-3.065 0-2.194-1.612-3.56-4.3-3.56H9.54v14.27zm2.216-8.227V8.86h3.004c1.642 0 2.602.77 2.602 2.087 0 1.353-1.02 2.076-2.977 2.076h-2.63zm0 6.348h3.203c1.998 0 3.054-.8 3.054-2.324 0-1.493-1.097-2.275-3.183-2.275h-3.075v4.598z" fill="#674199"/></svg>