<svg xmlns="http://www.w3.org/2000/svg"  fill="none"  ><path d="M13.87 1h4.578v21.193c-2.35.446-4.073.624-5.946.624-5.6 0-8.503-2.527-8.503-7.374 0-4.668 3.092-7.7 7.88-7.7.743 0 1.308.06 1.992.238V1zm0 10.667a4.54 4.54 0 0 0-1.546-.238c-2.32 0-3.656 1.427-3.656 3.925 0 2.438 1.28 3.775 3.627 3.775.505 0 .922-.03 1.575-.12v-7.343zM25.734 8.07v10.614c0 3.656-.267 5.41-1.07 6.927C23.92 27.068 22.94 28 20.917 29l-4.25-2.022c2.022-.95 3.003-1.784 3.627-3.063.655-1.308.862-2.825.862-6.808V8.07h4.578zm-4.578-7.046h4.578v4.697h-4.578V1.025z" fill="#005a25"/></svg>