<svg xmlns="http://www.w3.org/2000/svg"  fill="#4f4f4f"  ><path d="M29 22.812a1.78 1.78 0 0 1-1.265-.001c-.407-.155-.744-.454-.946-.84l-4.017-5.566-.584-.78-4.67 6.352a1.71 1.71 0 0 1-2.102.825l6.017-8.073-5.597-7.294a1.86 1.86 0 0 1 2.218.778l4.172 5.636 4.196-5.613a1.64 1.64 0 0 1 .895-.787 1.67 1.67 0 0 1 1.19.008l-2.172 2.88-2.943 3.83a.78.78 0 0 0 0 1.16L29 22.812zM1 14.63l.5-2.42c1.347-4.788 6.835-6.78 10.6-3.814 2.2 1.736 2.763 4.196 2.654 6.967H2.3c-.202 4.95 3.37 7.94 7.94 6.415a4.74 4.74 0 0 0 3.012-3.355c.24-.78.63-.9 1.37-.685a6.32 6.32 0 0 1-3.02 4.616 7.32 7.32 0 0 1-4.44.838c-1.532-.196-2.96-.87-4.085-1.928a7.67 7.67 0 0 1-1.915-4.499c0-.265-.1-.53-.156-.78L1 14.63zm1.316-.335H13.58c-.07-3.6-2.335-6.134-5.356-6.158C4.86 8.1 2.456 10.58 2.308 14.28l.008.016z"/></svg>