<svg width="295" height="194" fill="none" xmlns="http://www.w3.org/2000/svg"><path d="M283.434 194H11.144C4.991 194 0 189.012 0 182.859V11.144C0 4.991 4.99 0 11.145 0h272.289c6.157 0 11.144 4.99 11.144 11.145v171.714c0 6.153-4.987 11.141-11.144 11.141z" fill="#131039"/><path d="M283.43 11.201H11.14v171.714h272.29V11.202z" fill="#27244F"/><path d="M11.141 167.01v15.809h272.293l-63.771-90.473-31.884 45.237-14.506 20.579-30.283-42.968-47.666-67.622L11.141 167.01z" fill="url(#paint0_linear)"/><path d="M194.096 60.648c0 11.502-9.32 20.821-20.821 20.821-11.498 0-20.818-9.32-20.818-20.82 0-11.498 9.32-20.821 20.818-20.821 11.501 0 20.821 9.323 20.821 20.82z" fill="#484F8B"/><defs><linearGradient id="paint0_linear" x1="185.574" y1="71.393" x2="132.626" y2="214.548" gradientUnits="userSpaceOnUse"><stop stop-color="#484F8B"/><stop offset="1" stop-color="#21204F"/></linearGradient></defs></svg>