<svg xmlns="http://www.w3.org/2000/svg" fill="none"><path d="M23.44 13.146c.4 0 .722.326.722.723s-.322.722-.722.722h-2.01v1.29h2.01a.72.72 0 0 1 .722.722c0 .394-.322.72-.722.72h-2.734c-.395 0-.718-.327-.718-.72v-5.467c0-.395.323-.722.722-.722h2.734c.396 0 .718.327.718.722a.72.72 0 0 1-.722.722h-2.01v1.29h2.01zm-4.417 3.456a.72.72 0 0 1-.495.683.74.74 0 0 1-.228.035c-.242 0-.448-.103-.584-.286l-2.8-3.8v3.37a.72.72 0 1 1-1.44 0v-5.467a.72.72 0 0 1 .493-.682.67.67 0 0 1 .222-.038c.223 0 .43.12.567.29l2.82 3.816v-3.387c0-.395.323-.722.722-.722s.722.327.722.722v5.467zm-6.578 0c0 .394-.323.72-.723.72s-.718-.327-.718-.72v-5.467c0-.395.323-.722.722-.722s.72.327.72.722v5.467zm-2.826.72H6.884c-.395 0-.722-.327-.722-.72v-5.467c0-.395.327-.722.722-.722s.722.327.722.722v4.745h2.012a.72.72 0 0 1 .721.722c0 .394-.323.72-.72.72h0zm19.132-3.66C28.75 7.508 22.58 2.5 15 2.5S1.25 7.508 1.25 13.663c0 5.513 4.893 10.132 11.498 11.01.448.094 1.058.296 1.212.676.138.345.09.878.044 1.238l-.188 1.17c-.052.345-.275 1.36 1.202.74S22.943 23.82 25.83 20.5c1.975-2.165 2.92-4.382 2.92-6.838z" fill="#f4f4f4"/></svg>