<svg width="88" height="75" fill="none" xmlns="http://www.w3.org/2000/svg"><path d="M11.955.684C6.105.627 1.315 5.326 1.258 11.175L.832 54.446c-.058 5.851 4.64 10.642 10.488 10.7l23.593.232 8.557 8.727 8.727-8.557 23.583.232c5.85.058 10.641-4.64 10.699-10.49l.426-43.272c.058-5.85-4.64-10.641-10.49-10.7L11.954.685z" fill="url(#paint0_linear)"/><path d="M12.67.691C7.21.638 2.72 5.037 2.666 10.5l-.426 43.27c-.054 5.46 4.347 9.95 9.808 10.003l23.878.235 8.273 8.438 8.439-8.274 23.869.235c5.462.054 9.948-4.347 10.002-9.807l.426-43.27c.054-5.463-4.345-9.95-9.808-10.003L12.67.69z" fill="url(#paint1_linear)"/><path d="M49.092 46.057l-4.499 2.85-4.442-2.934C29.049 38.639 29.1 33.478 29.119 31.536a8.23 8.23 0 018.311-8.151c3.257.032 6.054 1.954 7.368 4.712a8.23 8.23 0 0115.601 3.747c-.02 1.94-.07 7.097-11.307 14.211" fill="#756FBE"/><defs><linearGradient id="paint0_linear" x1="65.284" y1="-.682" x2="21.006" y2="69.436" gradientUnits="userSpaceOnUse"><stop stop-color="#585A7D"/><stop offset="1" stop-color="#38337D"/></linearGradient><linearGradient id="paint1_linear" x1="65.535" y1="-1.886" x2="21.981" y2="69.716" gradientUnits="userSpaceOnUse"><stop stop-color="#2E3275"/><stop offset="1" stop-color="#0F1A2D"/></linearGradient></defs></svg>