<svg xmlns="http://www.w3.org/2000/svg"  fill="none"  ><path d="M21.372 13.652c-.063-.726-.196-1.45-.382-2.153-.586-2.22-1.562-4.347-2.938-6.2a15.55 15.55 0 0 0-1.213-1.436c-.446-.468-.94-.897-1.253-1.48L15.01 1.28l-.01.348.01-.35-.122-.307c-.02.07-.034.095-.034.12-.016.605-.36 1.015-.786 1.4l-1.388 1.35.052.062-.052-.062C11.3 5.647 10.102 7.575 9.4 9.74c-.207.63-.37 1.274-.485 1.928-.243 1.388-.355 2.738-.277 4.144.043.777.18 1.542.382 2.295.736 2.735 2.23 5.003 4.273 6.93l1.186 1.025.175.602.163.934.078.974.003.593c.003.05.07.098.106.146l.33.116.344.134-.06-.866-.003-.853c-.006.007-.013.013-.02.02l.02-.02.12-1.3.086-.283.246-.438.9-.74 1.453-1.535c.583-.7 1.086-1.467 1.49-2.288 1.147-2.335 1.677-4.94 1.466-7.537l-.006-.07.001.001z" fill="#4ba345"/></svg>