<svg xmlns="http://www.w3.org/2000/svg"  fill="none"  ><path d="M21.168 10.65c.143.072.27.17.38.287l2.936-1.306-2.74-2.714-.614 3.692.04.04zm-6.093-2.466a1.63 1.63 0 0 1 .261.718l4.37 1.852c.132-.1.283-.176.444-.22l.717-4.437L18.206 3.3l-3.13 4.815v.066zm14.916 6.864l-4.685-4.685-3.185 1.305 7.83 3.328s.066.053.04.053zm-.784.757l-7.516-3.21c-.105.14-.236.255-.386.343s-.316.144-.49.166l-.81 4.946c.24.243.377.57.38.914l4.54.952 4.163-4.137V15.7l.117.105zm-9.957-4.24l-4.085-1.738a1.5 1.5 0 0 1-1.305.679h-.25l-3.38 5.22 9.03-3.915v.012c-.007-.07-.007-.14 0-.21.002-.01.001-.018-.001-.027s-.006-.017-.012-.024zm4.96 9.135l-3.994-.823a1.37 1.37 0 0 1-.575.43l-.95 5.9 5.546-5.495s-.012.025-.026.025v-.037zm-5.586-.405c-.19-.077-.357-.198-.5-.352s-.23-.338-.28-.535l-7.437-1.527-.105.17 6.748 9.763.404-.405 1.15-7.088s.04.027.012.014v-.04zm-8.05-3.315l7.348 1.514c.105-.184.255-.34.434-.454s.384-.182.596-.2l.796-4.867-.17-.144-9.135 3.915a2.25 2.25 0 0 1 .13.235zm-3.08 1.226l-.156-.156-3.17 1.305 1.54 1.527 1.75-2.715.04.04zm2.087.496a1.71 1.71 0 0 1-.704.156c-.19.001-.38-.03-.562-.09l-1.93 2.806 8.456 8.377 1.487-1.475L9.58 18.7zM8.39 15.4c.13-.012.262-.012.393 0a1.73 1.73 0 0 1 .43 0l3.42-5.312a1.49 1.49 0 0 1-.418-1.03c-.012-.113-.012-.226 0-.34L8.065 6.8l-3.34 3.25L8.39 15.4zm.38-9.252l4.046 1.723c.293-.24.665-.367 1.044-.353.168.001.336.028.496.08l3.158-4.934-2.6-2.6L8.77 6.068s-.012.065 0 .08zM7.258 16.35a1.96 1.96 0 0 1 .3-.417l-3.46-5.167L0 14.746l7.258 1.605zm-.328.875L.666 15.92l2.754 2.794 3.47-1.475.04-.01z" fill="#2cb2b4"/></svg>