<svg xmlns="http://www.w3.org/2000/svg"  fill="none"  ><g clip-path="url(#A)"><path d="M14.874 30c-.402 0-.8-.105-1.153-.308l-3.67-2.173c-.548-.307-.28-.415-.1-.478.73-.256.88-.314 1.66-.757.082-.047.19-.03.273.02l2.82 1.673c.102.055.246.055.34 0l10.993-6.345c.102-.058.168-.176.168-.297V8.65c0-.127-.066-.24-.17-.303l-10.99-6.34a.34.34 0 0 0-.338 0L3.72 8.347a.35.35 0 0 0-.174.3v12.685a.34.34 0 0 0 .171.294l3 1.74c1.635.817 2.633-.146 2.633-1.114V9.73c0-.18.14-.316.32-.316h1.392c.173 0 .316.138.316.316v12.526c0 2.18-1.19 3.43-3.255 3.43-.636 0-1.136 0-2.534-.688l-2.884-1.662c-.713-.413-1.153-1.183-1.153-2.006V8.647a2.31 2.31 0 0 1 1.153-2.003L13.72.295c.696-.393 1.62-.393 2.31 0l11 6.35a2.32 2.32 0 0 1 1.153 2.003v12.685c0 .823-.443 1.59-1.153 2.003l-11 6.348a2.31 2.31 0 0 1-1.158.308l.001.006zm3.396-8.74c-4.8 0-5.82-2.208-5.82-4.06 0-.176.142-.317.318-.317h1.42c.157 0 .29.114.314.27.215 1.447.853 2.177 3.762 2.177 2.317 0 3.302-.523 3.302-1.752 0-.707-.28-1.233-3.88-1.585-3-.297-4.87-.96-4.87-3.368 0-2.218 1.87-3.54 5.005-3.54 3.52 0 5.264 1.222 5.484 3.847a.32.32 0 0 1-.085.245c-.06.063-.146.102-.234.102h-1.428c-.15 0-.278-.105-.308-.248-.344-1.522-1.175-2.01-3.434-2.01-2.53 0-2.823.88-2.823 1.54 0 .8.347 1.035 3.76 1.486 3.38.448 4.983 1.08 4.983 3.456 0 2.394-1.998 3.767-5.48 3.767l.016-.013z" fill="#8dc13e"/></g><defs><clipPath id="A"><path fill="#fff" d="M0 0h30v30H0z"/></clipPath></defs></svg>