<svg xmlns="http://www.w3.org/2000/svg" fill="none"><path fill="#386fa2" fill-rule="evenodd" d="M4.958 0h18.083C25.783 0 28 2.274 28 5.085v17.83C28 25.727 25.783 28 23.042 28H4.958C2.217 28 0 25.727 0 22.915V5.085C0 2.274 2.217 0 4.958 0zM6.3 19.636V7.323c0-.084.035-.132.117-.132h0l.653-.012.443-.012.443-.012 1.015-.024 1.062-.012c.957 0 1.75.12 2.403.37A4.15 4.15 0 0 1 14 8.472c.373.383.665.85.852 1.364.175.503.268 1.017.268 1.556 0 1.03-.233 1.88-.7 2.55a4.01 4.01 0 0 1-1.878 1.46c-.793.3-1.668.407-2.625.407-.28 0-.467 0-.583-.012s-.28-.012-.502-.012v3.84c.012.084-.047.156-.128.168H6.44c-.093 0-.14-.048-.14-.156zM8.843 9.5v4.02l.035.002.42.02h.618c.455 0 .9-.072 1.342-.215.373-.108.7-.335.957-.634.245-.3.362-.706.362-1.232a2.01 2.01 0 0 0-.268-1.065 1.7 1.7 0 0 0-.817-.682c-.432-.18-.898-.25-1.377-.24l-.793.012c-.233-.012-.397 0-.478.012zm12.437 2.884a4.06 4.06 0 0 1 1.12.407c.047.024.105.024.2 0 .035-.024.058-.072.058-.12v-1.95c0-.048-.012-.096-.023-.144-.023-.048-.07-.096-.117-.108a4.02 4.02 0 0 0-1.003-.275 9.81 9.81 0 0 0-1.447-.108c-.828 0-1.517.132-2.065.42a2.9 2.9 0 0 0-1.225 1.101 2.87 2.87 0 0 0-.397 1.448 2.62 2.62 0 0 0 .268 1.22c.222.407.525.754.887 1.017.513.36 1.062.646 1.657.862.572.227.957.407 1.143.562s.28.31.28.48c0 .215-.128.42-.315.502-.2.108-.525.168-.968.168-.467 0-.933-.06-1.377-.18a4.92 4.92 0 0 1-1.447-.586c-.035-.024-.07-.036-.105-.012s-.047.072-.047.108v2.082c-.012.096.047.18.128.227a4.62 4.62 0 0 0 1.19.383 7.84 7.84 0 0 0 1.587.155c.84 0 1.54-.132 2.112-.383.525-.215.98-.586 1.307-1.065.303-.467.467-1.03.455-1.59a2.64 2.64 0 0 0-.268-1.232c-.222-.407-.537-.742-.922-.993-.56-.36-1.167-.658-1.797-.873l-.828-.395c-.152-.084-.292-.19-.397-.323a.54.54 0 0 1-.117-.311c0-.108.035-.227.093-.323.082-.12.2-.203.362-.24.222-.06.467-.096.7-.084.443 0 .875.06 1.307.155z"/></svg>