<svg width="456" height="99" fill="none" xmlns="http://www.w3.org/2000/svg"><path d="M9.906 0C4.938 0 .468 4.473.468 9.99v79.022A9.986 9.986 0 0010.456 99H445.36c5.518 0 9.99-4.47 9.99-9.988V9.99c0-5.517-4.472-9.99-10.534-9.99H9.906z" fill="url(#paint0_linear)"/><path d="M10.448 97.993c-4.958 0-8.989-4.031-8.989-8.988V9.98c0-4.957 4.031-8.988 8.989-8.988h434.908c4.957 0 8.989 4.03 8.989 8.988v79.025c0 4.957-4.032 8.988-8.989 8.988H10.448z" fill="#0F1A2D"/><path fill-rule="evenodd" clip-rule="evenodd" d="M23.233 49.393c0 17.617 14.301 31.918 31.918 31.918 17.618 0 31.918-14.3 31.918-31.918 0-17.617-14.3-31.918-31.918-31.918-17.617 0-31.918 14.3-31.918 31.918z" fill="url(#paint1_linear)"/><path fill-rule="evenodd" clip-rule="evenodd" d="M24.232 49.51c0 17.064 13.854 30.918 30.92 30.918 17.064 0 30.918-13.854 30.918-30.919S72.216 18.59 55.151 18.59 24.232 32.444 24.232 49.51z" fill="url(#paint2_linear)"/><path d="M286.697 42.704H117.623a4.993 4.993 0 110-9.985h169.074a4.99 4.99 0 014.992 4.993 4.99 4.99 0 01-4.992 4.992zM426.028 42.704H309.371a4.993 4.993 0 110-9.985h116.657a4.99 4.99 0 014.993 4.993 4.99 4.99 0 01-4.993 4.992zM177.969 67.866h-60.346a4.994 4.994 0 010-9.988h60.346a4.995 4.995 0 110 9.988z" fill="#434665"/><defs><linearGradient id="paint0_linear" x1="237.758" y1="-.179" x2="217.099" y2="104.035" gradientUnits="userSpaceOnUse"><stop stop-color="#3A3D72"/><stop offset="1" stop-color="#27244F"/></linearGradient><linearGradient id="paint1_linear" x1="69.961" y1="21.184" x2="40.52" y2="77.261" gradientUnits="userSpaceOnUse"><stop stop-color="#3A3D72"/><stop offset="1" stop-color="#535169"/></linearGradient><linearGradient id="paint2_linear" x1="68.68" y1="18.49" x2="42.043" y2="79.573" gradientUnits="userSpaceOnUse"><stop stop-color="#3A3D72"/><stop offset="1" stop-color="#27244F"/></linearGradient></defs></svg>