<svg xmlns="http://www.w3.org/2000/svg" fill="none"><path fill="#d02d1c" d="M13.6 5.007c0 .008.123.24.276.525s.26.52.244.532-.442.174-.943.35l-.904.343c.007.007.58.067 1.27.13l1.302.166c.027.027.217.336.426.68l.375.63.323-.766.186-.454 1.002-.106 1.088-.106c.048-.004.087-.015.087-.036s-.37-.17-.83-.34l-.83-.32c0-.004.1-.244.217-.532l.2-.54c-.008-.012-.394.106-.852.256l-.836.273-.887-.35-.918-.336zm5.512 3l-1.94.78c-.008.008.78.328 1.755.715l1.767.698.19-.075 3.75-1.487c-.027-.032-3.51-1.396-3.55-1.396-.027.004-.915.347-1.972.766v-.001zm-10.186-.4c-1.018.106-1.873.403-2.237.778-.25.256-.288.474-.135.737.23.394.98.726 2.016.896.466.08 1.834.067 2.308-.015 1.11-.193 1.827-.548 1.996-.994.063-.166.063-.19 0-.35-.166-.433-.872-.793-1.917-.974-.53-.09-1.515-.126-2.032-.075h0zm18.96 1.227c-.05.067-.24.217-.422.34-.537.347-1.23.662-5.54 2.516l-4.852 2.15c-1.163.556-1.645.7-2.23.7-.525 0-.836-.1-1.815-.525l-3.55-1.495-7.322-3.294-.154-.17v2.687l.174.165a3.69 3.69 0 0 0 .931.56c.055.016.426.17.83.343l4.36 1.827 5.18 2.185c.595.264.927.33 1.487.312.41-.015.532-.04.892-.162.232-.08.635-.25.896-.38l6.024-2.666 4.812-2.2C28.02 11.42 28 11.496 28 10l-.012-1.298c-.008 0-.05.055-.102.123h-.001zm-13.603 1.752l-2.93.462c-.036.012 3.96 1.692 4.13 1.735.04.012 1.827-2.56 1.827-2.627 0-.036.004-.04-3.026.43h0zm13.625 2.66c-.036.06-.2.205-.363.32-.517.355-1.293.7-6.017 2.742l-4.38 1.94c-1.3.635-1.626.737-2.327.734-.544-.004-.88-.1-1.602-.418l-4.592-1.94L2.19 13.71 2 13.53v2.643l.213.2c.348.324.312.307 6.138 2.734l4.478 1.882c.86.387 1.11.477 1.448.548.793.162 1.38.03 2.666-.596l4.33-1.925 6.205-2.777c.123-.087.288-.225.37-.316l.147-.162v-1.322l-.012-1.322a.86.86 0 0 0-.079.114l.001.001zm-.043 4.326c-.312.39-.935.69-5.783 2.777l-5.167 2.288c-1.093.52-1.452.63-2.083.63-.43 0-.868-.103-1.353-.316l-5.184-2.19-5.365-2.276c-.375-.19-.757-.457-.844-.596L2 17.757v1.346c0 1.542-.027 1.428.387 1.708.457.307 1.136.607 5.65 2.48l4.852 2.04c1.145.513 1.448.596 2.087.56.584-.027.967-.154 1.977-.635l5.266-2.332 5.653-2.722.126-.142v-1.317-1.322a.91.91 0 0 0-.126.142h0z"/></svg>