<svg xmlns="http://www.w3.org/2000/svg" width="30" height="30" fill="none"><path d="M6.961 5.014c0 3.752 2.33 6.003 6.991 7.188l4.937 1.145c4.423 1.027 7.109 3.554 7.109 7.661.04 1.777-.553 3.515-1.619 4.937 0-4.107-2.133-6.319-7.227-7.661l-4.858-1.106c-3.91-.869-6.911-2.962-6.911-7.425a7.86 7.86 0 0 1 1.58-4.739z" fill="#f04939"/><path d="M21.337 19.981c2.093 1.343 3.041 3.238 3.041 5.963-1.777 2.251-4.818 3.475-8.412 3.475-6.043 0-10.348-3.001-11.256-8.175h5.806c.75 2.369 2.725 3.475 5.411 3.475 3.199.04 5.371-1.698 5.411-4.739zM6.961 4.974c1.698-2.212 4.621-3.554 8.175-3.554 6.201 0 9.755 3.278 10.664 7.859h-5.608C19.56 7.462 18.02 6.04 15.216 6.04c-3.041.039-5.095 1.777-5.213 4.542-2.035-1.122-3.12-3.317-3.041-5.608z" fill="#f37368"/></svg>