<svg xmlns="http://www.w3.org/2000/svg" width="35" height="68" fill="none" viewBox="0 0 35 68"><mask id="path-1-outside-1" width="35" height="68" x="0" y="0" fill="#000" maskUnits="userSpaceOnUse"><rect width="35" height="68" fill="#fff"/><path fill-rule="evenodd" d="M31 33.5V17.5C31 10.0442 24.9558 4 17.5 4C10.0442 4 4 10.0442 4 17.5V33.5C4 40.9558 10.0442 47 17.5 47C24.9558 47 31 40.9558 31 33.5ZM17.5 1C8.3873 1 1 8.3873 1 17.5V33.5C1 42.6127 8.3873 50 17.5 50C26.6127 50 34 42.6127 34 33.5V17.5C34 8.3873 26.6127 1 17.5 1ZM15 15.5C15 14.1193 16.1193 13 17.5 13C18.8807 13 20 14.1193 20 15.5V20.5C20 21.8807 18.8807 23 17.5 23C16.1193 23 15 21.8807 15 20.5V15.5ZM10.1775 57.22C9.9081 56.9267 9.47138 56.9267 9.20202 57.22C8.93266 57.5133 8.93266 57.9889 9.20202 58.2822L17.0055 66.78C17.1419 66.9285 17.3212 67.0019 17.5 67C17.6788 67.0019 17.8581 66.9285 17.9945 66.78L25.798 58.2822C26.0673 57.9889 26.0673 57.5133 25.798 57.22C25.5286 56.9267 25.0919 56.9267 24.8225 57.22L17.5 65.194L10.1775 57.22Z" clip-rule="evenodd"/></mask><path fill="#2D9CDB" fill-rule="evenodd" d="M31 33.5V17.5C31 10.0442 24.9558 4 17.5 4C10.0442 4 4 10.0442 4 17.5V33.5C4 40.9558 10.0442 47 17.5 47C24.9558 47 31 40.9558 31 33.5ZM17.5 1C8.3873 1 1 8.3873 1 17.5V33.5C1 42.6127 8.3873 50 17.5 50C26.6127 50 34 42.6127 34 33.5V17.5C34 8.3873 26.6127 1 17.5 1ZM15 15.5C15 14.1193 16.1193 13 17.5 13C18.8807 13 20 14.1193 20 15.5V20.5C20 21.8807 18.8807 23 17.5 23C16.1193 23 15 21.8807 15 20.5V15.5ZM10.1775 57.22C9.9081 56.9267 9.47138 56.9267 9.20202 57.22C8.93266 57.5133 8.93266 57.9889 9.20202 58.2822L17.0055 66.78C17.1419 66.9285 17.3212 67.0019 17.5 67C17.6788 67.0019 17.8581 66.9285 17.9945 66.78L25.798 58.2822C26.0673 57.9889 26.0673 57.5133 25.798 57.22C25.5286 56.9267 25.0919 56.9267 24.8225 57.22L17.5 65.194L10.1775 57.22Z" clip-rule="evenodd"/><path fill="#2D9CDB" d="M9.20202 57.22L9.93857 57.8964L9.93857 57.8964L9.20202 57.22ZM10.1775 57.22L10.914 56.5436L10.914 56.5436L10.1775 57.22ZM9.20202 58.2822L8.46546 58.9586L8.46546 58.9586L9.20202 58.2822ZM17.0055 66.78L16.269 67.4564L16.269 67.4564L17.0055 66.78ZM17.5 67L17.5106 66L17.5 65.9999L17.4894 66L17.5 67ZM17.9945 66.78L17.2579 66.1036L17.2579 66.1036L17.9945 66.78ZM25.798 58.2822L26.5345 58.9586L26.5345 58.9586L25.798 58.2822ZM24.8225 57.22L24.086 56.5436L24.086 56.5436L24.8225 57.22ZM17.5 65.194L16.7634 65.8704L17.5 66.6725L18.2366 65.8704L17.5 65.194ZM30 17.5V33.5H32V17.5H30ZM17.5 5C24.4036 5 30 10.5964 30 17.5H32C32 9.49187 25.5081 3 17.5 3V5ZM5 17.5C5 10.5964 10.5964 5 17.5 5V3C9.49187 3 3 9.49187 3 17.5H5ZM5 33.5V17.5H3V33.5H5ZM17.5 46C10.5964 46 5 40.4036 5 33.5H3C3 41.5081 9.49187 48 17.5 48V46ZM30 33.5C30 40.4036 24.4036 46 17.5 46V48C25.5081 48 32 41.5081 32 33.5H30ZM2 17.5C2 8.93959 8.93959 2 17.5 2V0C7.83502 0 0 7.83502 0 17.5H2ZM2 33.5V17.5H0V33.5H2ZM17.5 49C8.93959 49 2 42.0604 2 33.5H0C0 43.165 7.83502 51 17.5 51V49ZM33 33.5C33 42.0604 26.0604 49 17.5 49V51C27.165 51 35 43.165 35 33.5H33ZM33 17.5V33.5H35V17.5H33ZM17.5 2C26.0604 2 33 8.93959 33 17.5H35C35 7.83502 27.165 0 17.5 0V2ZM17.5 12C15.567 12 14 13.567 14 15.5H16C16 14.6716 16.6716 14 17.5 14V12ZM21 15.5C21 13.567 19.433 12 17.5 12V14C18.3284 14 19 14.6716 19 15.5H21ZM21 20.5V15.5H19V20.5H21ZM17.5 24C19.433 24 21 22.433 21 20.5H19C19 21.3284 18.3284 22 17.5 22V24ZM14 20.5C14 22.433 15.567 24 17.5 24V22C16.6716 22 16 21.3284 16 20.5H14ZM14 15.5V20.5H16V15.5H14ZM9.93857 57.8964C9.88571 57.9539 9.79592 58 9.68974 58C9.58355 58 9.49377 57.9539 9.4409 57.8964L10.914 56.5436C10.2484 55.8188 9.13107 55.8188 8.46546 56.5436L9.93857 57.8964ZM9.93858 57.6058C9.98751 57.6591 10 57.7146 10 57.7511C10 57.7876 9.98751 57.8431 9.93857 57.8964L8.46547 56.5436C7.84484 57.2195 7.84485 58.2828 8.46546 58.9586L9.93858 57.6058ZM17.7421 66.1036L9.93858 57.6058L8.46546 58.9586L16.269 67.4564L17.7421 66.1036ZM17.4894 66C17.597 65.9989 17.6884 66.0452 17.7421 66.1036L16.269 67.4564C16.5954 67.8119 17.0454 68.0049 17.5106 67.9999L17.4894 66ZM17.2579 66.1036C17.3116 66.0452 17.403 65.9989 17.5106 66L17.4894 67.9999C17.9545 68.0049 18.4046 67.8119 18.731 67.4564L17.2579 66.1036ZM25.0614 57.6058L17.2579 66.1036L18.731 67.4564L26.5345 58.9586L25.0614 57.6058ZM25.0614 57.8964C25.0125 57.8431 25 57.7876 25 57.7511C25 57.7146 25.0125 57.6591 25.0614 57.6058L26.5345 58.9586C27.1552 58.2828 27.1552 57.2195 26.5345 56.5436L25.0614 57.8964ZM25.5591 57.8964C25.5062 57.9539 25.4164 58 25.3103 58C25.2041 58 25.1143 57.9539 25.0614 57.8964L26.5345 56.5436C25.8689 55.8188 24.7516 55.8188 24.086 56.5436L25.5591 57.8964ZM18.2366 65.8704L25.5591 57.8964L24.086 56.5436L16.7634 64.5177L18.2366 65.8704ZM9.4409 57.8964L16.7634 65.8704L18.2366 64.5177L10.914 56.5436L9.4409 57.8964Z" mask="url(#path-1-outside-1)"/></svg>