<svg xmlns="http://www.w3.org/2000/svg" fill="none"><path fill="#fff" d="M14.93 2a13.17 13.17 0 0 0-3.223.41C6.638 3.67 2.615 8.27 2.1 13.483c-.64 4.933 1.85 10.07 6.114 12.618 4.183 2.622 9.85 2.516 13.946-.242 3.68-2.393 5.97-6.754 5.834-11.154-.063-4.355-2.502-8.586-6.24-10.823C19.717 2.623 17.322 2 14.93 2zm-.068 1.84C20.22 3.832 25.467 7.976 26 13.52c1.024 6.138-4.066 12.378-10.278 12.56-5.908.6-11.618-4.425-11.786-10.365-.44-4.81 2.726-9.582 7.256-11.17a9.86 9.86 0 0 1 3.67-.702V3.84zm5.515 3.498c-2.91 2.26-5.698 4.672-8.546 7.003l3.923.01 4.624-7.014zm-6.137 8.3l-4.626 7.02c2.917-2.256 5.693-4.685 8.56-7.002l-3.934-.02z"/></svg>