<svg xmlns="http://www.w3.org/2000/svg" width="30" height="30" fill="none" fill-rule="evenodd"><path fill="#e37400" d="M9.419 26.94c.168-.405.254-.839.254-1.277s-.084-.874-.251-1.28-.413-.775-.723-1.086-.678-.558-1.084-.726-.84-.255-1.28-.255-.874.087-1.28.255-.774.415-1.084.726-.556.68-.723 1.086-.252.841-.251 1.281.086.872.254 1.277a3.34 3.34 0 0 0 1.806 1.806c.405.168.839.254 1.277.254s.872-.086 1.277-.254a3.34 3.34 0 0 0 1.806-1.806zm2.331-1.603V15c.015-.88.371-1.72.994-2.343s1.463-.979 2.343-.994c1.75 0 3.337 1.342 3.337 3.5v10.173c0 2.555-1.75 3.663-3.337 3.663-1.715 0-3.337-1.307-3.337-3.663z"/><path fill="#f9ab00" d="M20.5 25.337v-21c.015-.88.371-1.72.994-2.343s1.462-.979 2.343-.994c1.75 0 3.337 1.342 3.337 3.5v20.837c0 2.555-1.75 3.663-3.337 3.663-1.715 0-3.337-1.307-3.337-3.663z"/></svg>