<svg xmlns="http://www.w3.org/2000/svg" fill="#006eb4"><path d="M28.506 13.02c-.077-.062-.773-.573-2.267-.573a7.3 7.3 0 0 0-1.172.1c-.283-1.905-1.92-2.827-1.984-2.88l-.4-.224-.258.36a5.39 5.39 0 0 0-.71 1.594c-.27 1.084-.103 2.104.464 2.976-.683.374-1.8.46-2.022.47H1.866a.89.89 0 0 0-.332.064c-.105.042-.2.104-.28.182a.83.83 0 0 0-.187.272.81.81 0 0 0-.064.321 12.23 12.23 0 0 0 .8 4.545c.63 1.594 1.572 2.78 2.78 3.5C5.95 24.54 8.18 25 10.7 25a19.34 19.34 0 0 0 3.388-.299 14.35 14.35 0 0 0 4.432-1.556 12.08 12.08 0 0 0 3.015-2.39c1.456-1.58 2.32-3.35 2.95-4.92h.258c1.585 0 2.564-.6 3.105-1.133a3.31 3.31 0 0 0 .825-1.171l.116-.324-.272-.185zM3.44 13.9h2.472a.22.22 0 0 0 .219-.216v-2.2c0-.057-.023-.112-.064-.153a.22.22 0 0 0-.155-.063H3.44a.22.22 0 0 0-.219.216v2.187a.22.22 0 0 0 .067.15.23.23 0 0 0 .153.066v.002zm3.4 0h2.473a.22.22 0 0 0 .219-.216v-2.2c0-.057-.023-.112-.064-.153a.22.22 0 0 0-.155-.063H6.85a.22.22 0 0 0-.219.216v2.187a.22.22 0 0 0 .067.15.23.23 0 0 0 .153.066v.002zm3.475 0h2.472a.22.22 0 0 0 .219-.216v-2.2c0-.057-.023-.112-.064-.153a.22.22 0 0 0-.155-.063h-2.472a.22.22 0 0 0-.219.216v2.187c-.001.03.004.057.015.084a.21.21 0 0 0 .047.071.22.22 0 0 0 .072.047c.027.01.056.015.085.014v.002zm3.423 0h2.473a.22.22 0 0 0 .219-.216v-2.2c0-.057-.023-.112-.064-.153a.22.22 0 0 0-.155-.063h-2.47a.22.22 0 0 0-.219.216v2.187c0 .057.023.112.064.153a.22.22 0 0 0 .155.063v.002zM6.85 10.763h2.473a.23.23 0 0 0 .22-.216v-2.2c0-.057-.023-.112-.064-.153a.22.22 0 0 0-.155-.063H6.85a.22.22 0 0 0-.219.216v2.187c.004.056.03.108.07.148a.24.24 0 0 0 .15.068v.002zm3.475 0h2.472a.23.23 0 0 0 .22-.216v-2.2c0-.057-.023-.112-.064-.153a.22.22 0 0 0-.155-.063h-2.472a.22.22 0 0 0-.219.216v2.187c0 .057.023.112.064.153a.22.22 0 0 0 .155.063v.002zm3.423 0h2.473a.23.23 0 0 0 .22-.216v-2.2c-.002-.057-.026-.1-.067-.15a.23.23 0 0 0-.153-.066h-2.47a.22.22 0 0 0-.219.216v2.187c.002.057.026.1.067.15a.23.23 0 0 0 .153.066v.002zm0-3.14h2.473a.22.22 0 0 0 .219-.216v-2.19c-.002-.057-.026-.1-.067-.15A.23.23 0 0 0 16.221 5h-2.47a.22.22 0 0 0-.219.216v2.187c.002.057.026.1.067.15a.23.23 0 0 0 .152.066v.005zm3.448 6.264h2.473a.22.22 0 0 0 .219-.216v-2.2c0-.057-.023-.112-.064-.153a.22.22 0 0 0-.155-.063h-2.473a.22.22 0 0 0-.219.216v2.187a.22.22 0 0 0 .067.15.23.23 0 0 0 .153.066"/></svg>