<svg xmlns="http://www.w3.org/2000/svg" width="200" height="200" fill="none"><rect width="200" height="200" fill="#191a24" rx="36"/><path fill="#56ccf2" d="M108.442 152.864c-9.984 0-19.008-2.208-27.072-6.624-7.968-4.416-14.256-10.512-18.864-18.288-4.512-7.872-6.768-16.656-6.768-26.352s2.256-18.432 6.768-26.208C67.114 67.52 73.45 61.376 81.514 56.96s17.088-6.624 27.072-6.624c7.488 0 14.4 1.248 20.736 3.744s11.712 6.144 16.128 10.944l-6.768 6.768c-7.872-7.968-17.808-11.952-29.808-11.952-7.968 0-15.216 1.824-21.744 5.472s-11.664 8.64-15.408 14.976c-3.648 6.336-5.472 13.44-5.472 21.312s1.824 14.976 5.472 21.312c3.744 6.336 8.88 11.328 15.408 14.976s13.776 5.472 21.744 5.472c12.096 0 22.032-4.032 29.808-12.096l6.768 6.768c-4.416 4.8-9.84 8.496-16.272 11.088-6.336 2.496-13.248 3.744-20.736 3.744z"/></svg>