<svg xmlns="http://www.w3.org/2000/svg" fill="none"><g clip-path="url(#A)"><path fill="#f05033" d="M28.453 13.21L15.795.547A1.87 1.87 0 0 0 14.474 0a1.87 1.87 0 0 0-1.321.547l-2.632 2.63 3.335 3.335c1.752-.592 3.4 1.086 2.81 2.828l3.215 3.215c2.216-.764 3.96 2.007 2.296 3.67-1.715 1.715-4.545-.186-3.625-2.417l-3-2.996v7.888c1.638.812 1.44 2.71.588 3.56-.417.417-.982.65-1.57.65s-1.155-.234-1.57-.65c-1.137-1.14-.717-3.037.728-3.625V10.67c-1.346-.55-1.592-2-1.207-2.913L9.23 4.466.547 13.15A1.87 1.87 0 0 0 0 14.471a1.87 1.87 0 0 0 .547 1.321L13.21 28.453a1.87 1.87 0 0 0 2.641 0L28.453 15.85a1.87 1.87 0 0 0 0-2.642z"/></g><defs><clipPath id="A"><path fill="#fff" d="M0 0h30v30H0z"/></clipPath></defs></svg>