<svg xmlns="http://www.w3.org/2000/svg" fill="none"><path d="M15.315 2.5A12.82 12.82 0 0 0 2.5 15.315c0 5.662 3.67 10.466 8.765 12.16.64.118.875-.28.875-.617l-.018-2.385c-3.564.774-4.317-1.51-4.317-1.51-.584-1.48-1.423-1.875-1.423-1.875-1.165-.795.088-.78.088-.78 1.286.09 1.965 1.32 1.965 1.32 1.143 1.96 3 1.392 3.73 1.063.117-.826.448-1.392.813-1.71-2.844-.323-5.837-1.423-5.837-6.334 0-1.4.5-2.542 1.318-3.44-.13-.326-.572-1.63.127-3.393 0 0 1.075-.344 3.524 1.314a12.19 12.19 0 0 1 3.206-.431c1.09.005 2.185.147 3.21.433 2.444-1.66 3.522-1.314 3.522-1.314.7 1.765.26 3.067.128 3.39.82.897 1.317 2.04 1.317 3.44 0 4.923-2.997 6.007-5.852 6.325.462.398.87 1.177.87 2.37l-.017 3.517c0 .34.233.74.882.614 5.09-1.697 8.757-6.5 8.757-12.16A12.82 12.82 0 0 0 15.314 2.501l.001-.001z" fill="#f4f4f4"/></svg>