<svg xmlns="http://www.w3.org/2000/svg" width="24" height="24" fill="none"  ><path d="M12.252 2C6.6 2 2 6.6 2 12.252c0 4.53 2.937 8.373 7.012 9.728.513.094.7-.223.7-.493l-.015-1.908c-2.85.62-3.453-1.21-3.453-1.21-.467-1.184-1.14-1.5-1.14-1.5-.932-.636.07-.623.07-.623 1.03.07 1.572 1.056 1.572 1.056.915 1.567 2.4 1.114 2.984.85.093-.66.358-1.114.65-1.37-2.275-.26-4.67-1.14-4.67-5.067a3.97 3.97 0 0 1 1.055-2.752c-.104-.26-.458-1.303.1-2.714 0 0 .86-.275 2.82 1.05.817-.228 1.694-.34 2.565-.345.87.004 1.748.118 2.567.346 1.956-1.328 2.817-1.05 2.817-1.05.56 1.412.207 2.454.102 2.713.657.717 1.054 1.63 1.054 2.752 0 3.94-2.398 4.806-4.682 5.06.37.318.695.94.695 1.897l-.014 2.814c0 .273.186.592.706.492 4.07-1.358 7.005-5.2 7.005-9.728C22.504 6.592 17.914 2 12.25 2h.001z" fill="#f4f4f4"/></svg>