<svg xmlns="http://www.w3.org/2000/svg" width="30" height="30" fill="none"  ><path fill-rule="evenodd" d="M5.67 29h17.243a2.67 2.67 0 0 0 2.671-2.67V3.67A2.67 2.67 0 0 0 22.913 1H5.67A2.67 2.67 0 0 0 3 3.67v22.66A2.67 2.67 0 0 0 5.67 29zm11.483-14.972v11.12h3.033V14.065c0-6.103-8.812-2.632-8.812-2.632v-6.62l-3.147.02.018 10.282c9.632-3.75 8.91-1.09 8.91-1.09zM15.608 8.82h3.338c1.812-2.346 2.403-3.986 2.403-3.986h-3.452S16.8 7.35 15.608 8.82zm-7.325 9.976v6.332l3.166-3.166-3.166-3.166z" fill="#6762a6"/></svg>