<svg xmlns="http://www.w3.org/2000/svg" width="24" height="24" fill="#f4f4f4"  ><path d="M15.875 3.75c1.16 0 2.26.46 3.1 1.285s1.285 1.93 1.285 3.1v8.75c0 1.16-.46 2.26-1.285 3.1s-1.93 1.285-3.1 1.285h-8.75c-1.16 0-2.26-.46-3.1-1.285s-1.285-1.93-1.285-3.1v-8.75c0-1.16.46-2.26 1.285-3.1s1.93-1.285 3.1-1.285h8.75zm0-1.75h-8.75C3.756 2 1 4.756 1 8.125v8.75C1 20.244 3.756 23 7.125 23h8.75C19.244 23 22 20.244 22 16.875v-8.75C22 4.756 19.244 2 15.875 2zm.84 6.57c-.713 0-1.286-.573-1.286-1.286A1.28 1.28 0 0 1 16.714 6C17.42 6 18 6.573 18 7.286s-.58 1.286-1.286 1.286zm-5.57.857c1.9 0 3.43 1.538 3.43 3.43s-1.538 3.43-3.43 3.43-3.43-1.537-3.43-3.43 1.537-3.43 3.43-3.43zm0-1.714A5.15 5.15 0 0 0 6 12.857C6 15.696 8.304 18 11.143 18s5.143-2.304 5.143-5.143-2.304-5.143-5.143-5.143z"/></svg>