<svg xmlns="http://www.w3.org/2000/svg" fill="#f4f4f4"><path d="M19.844 4.688a5.46 5.46 0 0 1 3.862 1.606 5.42 5.42 0 0 1 1.606 3.862v10.938a5.46 5.46 0 0 1-1.606 3.862 5.42 5.42 0 0 1-3.862 1.606H8.906a5.46 5.46 0 0 1-3.862-1.606 5.42 5.42 0 0 1-1.606-3.862V10.156a5.46 5.46 0 0 1 1.606-3.862 5.42 5.42 0 0 1 3.862-1.606h10.938zm0-2.187H8.906c-4.2 0-7.656 3.445-7.656 7.656v10.938c0 4.2 3.445 7.656 7.656 7.656h10.938c4.2 0 7.656-3.445 7.656-7.656v-10.94c0-4.2-3.445-7.656-7.656-7.656zm1.05 8.213c-.9 0-1.607-.717-1.607-1.607S20.002 7.5 20.893 7.5A1.61 1.61 0 0 1 22.5 9.107a1.61 1.61 0 0 1-1.607 1.607zm-6.964 1.07a4.29 4.29 0 0 1 4.286 4.286 4.29 4.29 0 0 1-4.286 4.286 4.29 4.29 0 0 1-4.286-4.286 4.29 4.29 0 0 1 4.286-4.286zm0-2.143a6.43 6.43 0 0 0-6.429 6.43 6.43 6.43 0 0 0 6.429 6.429 6.43 6.43 0 0 0 6.429-6.429 6.43 6.43 0 0 0-6.428-6.429z"/></svg>