<svg xmlns="http://www.w3.org/2000/svg"  fill="none"  ><path d="M2 2v25h25V2H2zm13.393 19.42c0 2.434-1.437 3.62-3.518 3.62-1.88 0-2.97-.973-3.524-2.148l1.913-1.158c.37.655.65 1.208 1.454 1.208.67 0 1.22-.302 1.22-1.477v-7.858h2.455v7.812zm5.544 3.564c-2.18 0-3.59-.984-4.28-2.344l1.916-1.11c.502.823 1.158 1.37 2.316 1.37.973 0 1.538-.43 1.538-1.102 0-.805-.582-1.1-1.656-1.562l-.587-.252c-1.695-.72-2.82-1.627-2.82-3.54 0-1.762 1.342-3.05 3.44-3.05 1.494 0 2.567.464 3.34 1.824l-1.833 1.178c-.403-.722-.837-1.004-1.5-1.004-.688 0-1.124.436-1.124 1.004 0 .705.436 1 1.443 1.426l.587.252c1.997.856 3.122 1.73 3.122 3.692.001 2.115-1.66 3.217-3.893 3.217z" fill="#f2db1d"/></svg>