<svg xmlns="http://www.w3.org/2000/svg" width="24" height="24" fill="none"  ><path d="M18.75 10.517a.58.58 0 0 1 .578.578.58.58 0 0 1-.578.578h-1.61v1.03h1.61a.58.58 0 0 1 .578.577.58.58 0 0 1-.578.577h-2.187a.58.58 0 0 1-.575-.577V8.908a.58.58 0 0 1 .578-.578h2.187a.58.58 0 0 1 .575.578c0 .32-.258.578-.578.578h-1.61v1.03h1.61zm-3.534 2.765c0 .248-.16.468-.396.546-.06.02-.122.028-.182.028-.193 0-.358-.082-.467-.23l-2.24-3.04v2.695a.58.58 0 0 1-.578.577c-.317 0-.574-.26-.574-.577V8.908c0-.248.16-.467.394-.545.055-.02.125-.03.178-.03.18 0 .344.095.454.233l2.257 3.053v-2.7a.58.58 0 0 1 .578-.578.58.58 0 0 1 .577.578v4.373zm-5.263 0a.58.58 0 0 1-.578.577.58.58 0 0 1-.575-.577V8.908a.58.58 0 0 1 .578-.578.58.58 0 0 1 .576.578v4.373zm-2.26.577H5.507a.58.58 0 0 1-.577-.577V8.908a.58.58 0 0 1 .577-.578.58.58 0 0 1 .577.578v3.796h1.6c.32 0 .577.26.577.577a.58.58 0 0 1-.577.577zM23 10.93C23 6.007 18.064 2 12 2S1 6.007 1 10.93c0 4.4 3.914 8.105 9.2 8.807.358.075.846.236.97.54.1.276.072.702.035 1l-.15.935c-.04.276-.22 1.087.962.59s6.34-3.738 8.65-6.394C22.245 14.67 23 12.896 23 10.93z" fill="#f4f4f4"/></svg>