<svg xmlns="http://www.w3.org/2000/svg" width="30" height="30" fill="none"  ><path fill-rule="evenodd" d="M7.372 5.804c-.32-.006-.544.035-.782.088v.044h.044c.152.318.42.523.608.797l.434.93.044-.044c.27-.193.392-.502.39-.974-.108-.116-.124-.26-.217-.398-.124-.184-.364-.288-.52-.443zm21.02 22.71c.205.153.342.39.608.487v-.044c-.14-.18-.175-.43-.304-.62l-.565-.576c-.552-.747-1.253-1.402-1.998-1.947-.594-.435-1.924-1.022-2.172-1.726l-.044-.045c.42-.048.915-.203 1.303-.3.653-.178 1.237-.132 1.91-.3l.912-.265v-.178c-.34-.357-.584-.828-.955-1.15-.973-.844-2.034-1.687-3.127-2.4-.606-.4-1.355-.643-1.998-.974-.216-.11-.595-.17-.738-.354-.337-.44-.52-.994-.78-1.505L18.88 13.24c-.33-.768-.544-1.524-.955-2.213-1.972-3.305-4.095-5.3-7.383-7.26-.7-.417-1.542-.58-2.432-.797l-1.433-.09c-.29-.124-.595-.488-.868-.664-1.1-.7-3.884-2.227-4.7-.22-.51 1.266.76 2.5 1.216 3.143.32.45.727.955.956 1.46.15.333.175.666.304 1.018.316.867.6 1.8.998 2.612.207.405.435.833.695 1.195.16.223.434.32.477.664-.268.383-.283.976-.433 1.46-.68 2.182-.423 4.893.565 6.507.303.495 1.016 1.56 1.997 1.15.858-.356.667-1.46.912-2.434.055-.22.022-.384.13-.53v.044l.782 1.593c.58.95 1.606 1.943 2.476 2.612.45.347.806.948 1.4 1.15v-.045h-.044c-.114-.18-.3-.254-.434-.398a10.13 10.13 0 0 1-.999-1.151c-.792-1.095-1.49-2.294-2.128-3.54-.304-.596-.57-1.253-.826-1.86-.1-.234-.098-.587-.304-.708-.28.444-.695.804-.912 1.328-.347.84-.392 1.86-.52 2.922-.076.028-.042.01-.087.044-.605-.148-.818-.783-1.042-1.328-.568-1.377-.674-3.594-.174-5.18.13-.4.715-1.702.477-2.08-.113-.378-.486-.596-.694-.885a6.97 6.97 0 0 1-.696-1.24c-.465-1.073-.682-2.28-1.172-3.364-.234-.52-.63-1.044-.956-1.505-.36-.51-.763-.887-1.042-1.505-.1-.22-.234-.57-.087-.797.046-.152.113-.216.26-.266.252-.198.953.066 1.216.177.696.295 1.278.576 1.868.974.283.19.57.562.91.664h.39c.612.143 1.297.045 1.868.22 1 .313 1.914.8 2.736 1.328 2.503 1.61 4.55 3.904 5.95 6.64.225.44.323.86.52 1.328.4.942.905 1.91 1.303 2.833s.784 1.847 1.346 2.612c.295.402 1.436.618 1.955.84.363.156.96.32 1.302.53.658.404 1.294.886 1.91 1.328.308.222 1.256.707 1.302 1.106-1.527-.04-2.694.103-3.69.532-.284.12-.735.125-.782.486.156.166.18.415.304.62.237.393.64.92 1 1.196.392.302.796.624 1.216.885.748.465 1.582.73 2.302 1.195.426.275.847.62 1.26.93z" fill="#006185"/></svg>