<svg xmlns="http://www.w3.org/2000/svg" fill="none"  ><path d="M11.683 17.012H10.1l-.858 4.413h1.397c.927 0 1.617-.175 2.07-.523s.758-.932.917-1.748c.153-.783.083-1.337-.207-1.658s-.872-.483-1.745-.483h0zM20 9.48C8.955 9.48 0 14.2 0 20s8.955 10.522 20 10.522S40 25.8 40 20 31.045 9.48 20 9.48zm-5.433 12.418c-.435.417-.958.73-1.528.918-.56.18-1.275.273-2.142.273H8.928l-.545 2.802H6.087l2.05-10.543h4.417c1.328 0 2.297.348 2.907 1.047s.793 1.67.55 2.92a4.73 4.73 0 0 1-.508 1.412 4.76 4.76 0 0 1-.935 1.172zm6.707 1.192l.905-4.665c.105-.53.065-.893-.113-1.085s-.56-.3-1.145-.3H19.1l-1.173 6.042h-2.28l2.05-10.545h2.278l-.545 2.803h2.03c1.278 0 2.158.223 2.643.668s.63 1.167.438 2.165l-.953 4.907h-2.315zm12.662-3.775a4.64 4.64 0 0 1-.508 1.412 4.76 4.76 0 0 1-.935 1.172 4.07 4.07 0 0 1-1.528.918c-.56.18-1.275.273-2.143.273h-1.967l-.545 2.803h-2.297l2.05-10.543h4.415c1.328 0 2.297.348 2.907 1.047s.795 1.668.552 2.918h0zM29.6 17.012h-1.572l-.86 4.413h1.397c.928 0 1.618-.175 2.07-.523s.758-.932.918-1.748c.153-.783.082-1.337-.208-1.658s-.873-.483-1.745-.483h0z" fill="#6c7eb7"/></svg>