<svg xmlns="http://www.w3.org/2000/svg" fill="none"><path fill="#2f638e" d="M20.82 2a11.4 11.4 0 0 0-3.099.453l-.07.022c-.635-.112-1.28-.174-1.924-.186-1.325-.022-2.464.3-3.382.835-.905-.314-2.78-.855-4.76-.747-1.377.075-2.88.494-3.994 1.67s-1.698 2.995-1.574 5.47c.034.683.228 1.797.55 3.24s.776 3.13 1.342 4.67 1.186 2.925 2.154 3.866c.484.47 1.15.867 1.935.835.55-.023 1.05-.264 1.48-.62.21.276.433.396.637.507.257.14.506.236.765.3.465.116 1.26.27 2.192.113.317-.053.65-.156.984-.304l.042 1.102c.046 1.166.075 2.242.425 3.186.056.154.2.948.818 1.65s1.798 1.14 3.153.85c.956-.205 2.172-.574 2.98-1.723.8-1.136 1.16-2.766 1.23-5.4l.062-.378.2.017h.023c1.02.046 2.127-.1 3.052-.53.82-.38 1.44-.763 1.9-1.443.113-.17.236-.372.27-.723s-.168-.9-.502-1.153c-.67-.51-1.1-.315-1.54-.222a7.05 7.05 0 0 1-1.352.164c1.3-2.2 2.233-4.517 2.765-6.576.315-1.215.492-2.336.506-3.315s-.065-1.847-.652-2.598C25.58 2.675 23 2.027 21.004 2.005l-.186-.001V2zm-.053.72c1.888-.018 4.3.512 6.03 2.725.39.497.505 1.224.492 2.12s-.18 1.965-.483 3.14c-.587 2.273-1.697 4.922-3.26 7.3a.85.85 0 0 0 .178.097c.326.135 1.07.25 2.554-.054.373-.08.647-.132.93.084.07.058.123.132.16.215s.052.173.047.263a.79.79 0 0 1-.146.378c-.287.43-.853.84-1.578 1.176-.642.3-1.564.456-2.38.465-.4.005-.788-.027-1.108-.127l-.02-.008-.594 4.622c-.148.866-.408 1.555-.905 2.07s-1.196.826-2.14 1.028c-1.168.25-2.02-.02-2.568-.482s-.8-1.073-.95-1.448c-.104-.26-.158-.594-.21-1.042l-.116-1.613-.034-2.838c-.488.447-1.094.744-1.746.855-.775.132-1.467.002-1.88-.1a2.56 2.56 0 0 1-.585-.226c-.19-.102-.373-.218-.495-.447a.63.63 0 0 1-.064-.429c.038-.148.124-.28.245-.372.223-.18.518-.282.962-.375.81-.167 1.09-.28 1.263-.416.146-.117.312-.353.604-.7l-.003-.046a3.33 3.33 0 0 1-1.496-.403l-2.08 2.354c-.442.53-.93.832-1.446.854s-.98-.237-1.377-.62c-.79-.768-1.422-2.1-1.972-3.584s-.996-3.158-1.313-4.575-.506-2.56-.533-3.112c-.118-2.342.43-3.92 1.37-4.916s2.23-1.373 3.486-1.445c2.256-.13 4.398.657 4.83.826.835-.567 1.9-.92 3.254-.898.638.01 1.272.09 1.89.245l.023-.01c.272-.096.55-.176.83-.24a10.83 10.83 0 0 1 2.33-.282l.001-.002zm.17.754h-.164c-.645.01-1.287.08-1.917.216 1.402.62 2.46 1.577 3.206 2.53.518.66.946 1.387 1.274 2.16.124.297.207.548.254.742a1.54 1.54 0 0 1 .045.266c.002.043.005.087-.014.162.027 1-.217 1.668-.246 2.61-.023.682.152 1.483.195 2.357.04.82-.058 1.724-.592 2.61l.128.162c1.41-2.222 2.428-4.68 2.97-6.776.3-1.128.444-2.15.458-2.96s-.14-1.397-.332-1.643c-1.5-1.93-3.553-2.422-5.265-2.436v.001zm-5.39.288c-1.33.003-2.284.405-3.007 1.007-.746.622-1.247 1.474-1.575 2.346-.4 1.035-.524 2.036-.577 2.716l.015-.01a5.83 5.83 0 0 1 1.494-.581c.565-.13 1.173-.17 1.725.044s1.007.717 1.172 1.48c.792 3.664-.246 5.027-.63 6.055a10.8 10.8 0 0 0-.372 1.14c.048-.01.097-.025.145-.03a1.23 1.23 0 0 1 .607.122c.385.16.65.495.792.878.037.1.064.208.08.32a.38.38 0 0 1 .022.143l.015 4.205.113 1.56c.048.42.117.74.16.847.144.36.354.83.735 1.152s.926.533 1.923.32c.864-.186 1.397-.443 1.754-.813s.568-.885.704-1.674l.663-5.25c-.023-.486.05-.86.205-1.144a1.33 1.33 0 0 1 .621-.568c.107-.048.207-.08.29-.105l-.273-.366a5.01 5.01 0 0 1-.749-1.236l-.29-.543-.537-.987c-.396-.76-.827-1.68-1.05-2.576s-.255-1.822.316-2.476c.506-.58 1.395-.82 2.73-.686l-.13-.373c-.302-.7-.695-1.377-1.17-1.985-1.13-1.446-2.96-2.88-5.79-2.925h-.13v-.002zm-7.472.06l-.428.012c-1.136.065-2.21.395-2.98 1.21s-1.276 2.15-1.166 4.36c.02.418.204 1.59.516 2.984s.754 3.032 1.285 4.48 1.177 2.708 1.79 3.304c.308.298.576.418.82.408s.538-.152.897-.583l2.036-2.304c-.5-.433-.88-.985-1.1-1.604s-.3-1.286-.203-1.94c.116-.83.132-1.61.118-2.223l-.056-1.245v-.027l-.001-.007v-.001a11.13 11.13 0 0 1 .666-3.798c.315-.837.784-1.688 1.487-2.376-.69-.227-1.917-.574-3.245-.64l-.426-.01zm13.948 5.942c-.764.01-1.193.207-1.418.465-.318.366-.35 1.007-.15 1.797s.604 1.675.987 2.4l.526.967.33.624c.062.15.13.284.2.407.296-.624.35-1.238.318-1.877-.04-.79-.223-1.6-.196-2.42.03-.957.22-1.58.236-2.32a6.52 6.52 0 0 0-.833-.054h0zm-9.263.13c-.233.002-.466.03-.693.083-.453.1-.89.28-1.297.505-.138.074-.27.16-.393.257l-.025.022.053 1.15a14.76 14.76 0 0 1-.126 2.345c-.27 1.924 1.127 3.517 2.768 3.52.096-.395.253-.795.41-1.217.457-1.23 1.356-2.13.6-5.632-.124-.574-.37-.806-.707-.936a1.66 1.66 0 0 0-.59-.095h0zm8.907.23h.056c.074.002.143.01.203.025a.46.46 0 0 1 .155.062c.022.014.04.032.055.053s.024.045.03.07l-.001.01a.27.27 0 0 1-.039.152c-.033.062-.075.12-.124.17a.76.76 0 0 1-.434.239c-.163.02-.327-.022-.46-.116-.055-.037-.104-.082-.146-.133-.036-.04-.06-.1-.07-.143-.002-.026.001-.052.01-.077a.19.19 0 0 1 .039-.067.43.43 0 0 1 .132-.101c.108-.06.254-.106.42-.13a1.45 1.45 0 0 1 .18-.015v.003zm-8.797.19c.06 0 .123.006.187.015.172.024.325.07.442.137a.5.5 0 0 1 .15.119c.023.026.04.056.05.09a.25.25 0 0 1 .01.102.34.34 0 0 1-.084.173.73.73 0 0 1-.161.146.72.72 0 0 1-.504.127.82.82 0 0 1-.473-.257.8.8 0 0 1-.133-.184c-.037-.06-.053-.13-.046-.2.017-.12.117-.184.215-.22.11-.036.23-.05.345-.045l.001-.005zm10.193 8.26l-.003.001-.416.135a.51.51 0 0 0-.269.241c-.07.13-.132.36-.114.75a.57.57 0 0 0 .167.079c.192.06.515.097.875.09.718-.008 1.6-.175 2.07-.394.385-.18.742-.412 1.06-.692h-.001c-1.567.324-2.453.237-2.996.014-.135-.056-.26-.132-.373-.225h0zm-9.035.106h-.024c-.06.006-.146.026-.314.212-.39.44-.53.714-.852.972s-.743.394-1.58.566a2.16 2.16 0 0 0-.519.162c.033.027.03.034.08.06.123.067.28.127.407.16.36.1.952.195 1.57.1s1.26-.402 1.808-1.17c.095-.133.105-.33.027-.54s-.25-.392-.372-.442c-.072-.035-.15-.058-.23-.067v-.002z"/></svg>