<svg xmlns="http://www.w3.org/2000/svg" width="30" height="30" fill="none"  ><path d="M18.398 2.132c-1.09-.18-2.683-.262-3.766-.257a18.23 18.23 0 0 0-3.027.257c-2.68.47-3.168 1.447-3.168 3.254V7.5H15v.937H6.306c-2.435 0-4.412 2.9-4.43 6.51V15c-.001.63.06 1.258.183 1.875.544 2.712 2.24 4.688 4.247 4.688H7.5V18.4c0-1.834 1.22-3.513 3.223-3.873l.578-.072h7.097a3.28 3.28 0 0 0 .883-.117c.657-.175 1.238-.564 1.65-1.104s.635-1.203.63-1.883V5.386c0-1.695-1.446-2.972-3.164-3.254zm-6.977 4.05c-.236.001-.468-.07-.665-.2s-.35-.317-.44-.535-.115-.46-.07-.7.16-.445.327-.612.38-.28.612-.327.472-.022.69.07.405.244.535.44.2.428.2.665a1.19 1.19 0 0 1-.348.841 1.19 1.19 0 0 1-.841.348z" fill="#386fa2"/><path d="M27.848 12.715c-.627-2.497-2.25-4.277-4.154-4.277h-1.038v2.78c0 2.32-1.523 3.997-3.383 4.285a3.72 3.72 0 0 1-.568.044h-7.1c-.3 0-.6.038-.892.114-1.307.343-2.276 1.43-2.276 2.84v5.963c0 1.7 1.707 2.695 3.383 3.182a11.59 11.59 0 0 0 6.587 0c1.593-.455 3.155-1.376 3.155-3.182V22.5H15v-.937h8.694c1.725 0 3.22-1.46 3.952-3.592a9.19 9.19 0 0 0 .479-2.97c.002-.77-.09-1.538-.277-2.285zm-9.303 10.957c.236-.001.468.07.665.2s.35.317.44.535.115.46.07.69-.16.445-.327.612-.38.28-.612.327a1.19 1.19 0 0 1-.691-.069c-.218-.09-.405-.244-.536-.44s-.2-.428-.2-.665a1.19 1.19 0 0 1 .348-.841c.1-.1.242-.198.386-.258a1.19 1.19 0 0 1 .455-.09z" fill="#f9d245"/></svg>