<svg xmlns="http://www.w3.org/2000/svg"  fill="#5ddcf2"  ><path d="M24.062 10.6l-.905-.286.14-.62c.686-3.334.237-6.02-1.293-6.904-1.465-.848-3.867.036-6.3 2.15l-.7.645-.47-.43c-2.54-2.26-5.086-3.213-6.614-2.326-1.465.85-1.9 3.375-1.283 6.535l.208.933-1.04.328c-2.975 1.04-4.877 2.67-4.877 4.36 0 1.747 2.04 3.5 5.143 4.562l.762.238-.22 1.006c-.586 3.105-.13 5.57 1.333 6.416 1.5.872 4.043-.024 6.512-2.186l.586-.542.762.695c2.4 2.06 4.75 2.894 6.2 2.047 1.5-.875 2-3.524 1.362-6.746l-.17-.754.523-.163c3.223-1.07 5.322-2.8 5.322-4.57-.001-1.7-1.964-3.34-5.002-4.4zm-7.56-4.75c2.076-1.8 4.017-2.526 4.9-2.015.942.544 1.308 2.74.716 5.618l-.127.56a28.58 28.58 0 0 0-3.761-.595c-.724-1.044-1.52-2.037-2.377-2.974l.647-.595zm-7.26 10.58l.798 1.458.883 1.448a25.52 25.52 0 0 1-2.592-.418 26.8 26.8 0 0 1 .912-2.49zm0-2.832l-.894-2.44 2.55-.438-.863 1.42-.796 1.458h.002zm.64 1.416l1.196-2.272 1.364-2.176 2.56-.097 2.566.097 1.355 2.168 1.212 2.262-1.2 2.282-1.348 2.182-2.578.1a39.16 39.16 0 0 1-2.546-.081l-1.375-2.185-1.2-2.27h.002zm10.085 2.866l.816-1.493a25.79 25.79 0 0 1 .945 2.48 25.31 25.31 0 0 1-2.624.448l.864-1.434zm.804-4.28l-.8-1.465-.855-1.4 2.565.45a25.79 25.79 0 0 1-.901 2.425zm-5.756-6.296a25.78 25.78 0 0 1 1.655 2.003 34.95 34.95 0 0 0-3.325 0l1.67-2.003zM8.535 3.86c.94-.546 3.022.234 5.215 2.184l.422.4a28.9 28.9 0 0 0-2.394 2.97c-1.263.114-2.516.3-3.753.586l-.193-.868c-.53-2.7-.18-4.75.704-5.263zM7.163 18.616L6.47 18.4c-1.37-.47-2.504-1.08-3.28-1.747-.696-.597-1.05-1.193-1.05-1.676 0-1.026 1.527-2.335 4.073-3.223l.968-.305a29.05 29.05 0 0 0 1.37 3.56 29.45 29.45 0 0 0-1.388 3.608zm6.512 5.488c-1.092.956-2.185 1.634-3.15 1.976-.866.306-1.556.315-1.972.074-.887-.513-1.256-2.493-.753-5.148l.205-.937a28.2 28.2 0 0 0 3.79.55 29.49 29.49 0 0 0 2.414 2.988l-.536.497zm1.372-1.36a26.96 26.96 0 0 1-1.692-2.03l1.645.032 1.7-.037a25.72 25.72 0 0 1-1.652 2.036zm7.296 1.675c-.168.905-.505 1.508-.92 1.75-.887.514-2.782-.154-4.826-1.917l-.707-.645a28.4 28.4 0 0 0 2.357-3 27.99 27.99 0 0 0 3.809-.589l.152.682c.282 1.424.322 2.712.136 3.72zm1.02-6.014l-.472.148a28.3 28.3 0 0 0-1.424-3.571 28.22 28.22 0 0 0 1.369-3.519l.836.265c2.603.898 4.2 2.227 4.2 3.248 0 1.1-1.715 2.504-4.5 3.43zM15 17.493a2.52 2.52 0 0 0 1.793-4.298 2.52 2.52 0 0 0-4.304 1.779c-.001.33.064.658.2.963s.3.583.544.817.5.42.815.546a2.58 2.58 0 0 0 .963.193z"/></svg>