<svg xmlns="http://www.w3.org/2000/svg" width="30" height="30" fill="none"  ><g clip-path="url(#A)"><path d="M25.817 16.926c-1.046.005-1.955.257-2.716.63-.28-.553-.56-1.046-.608-1.408-.055-.422-.12-.68-.055-1.183s.36-1.22.356-1.276-.066-.312-.668-.318-1.123.115-1.183.274a6.6 6.6 0 0 0-.252.893c-.104.548-1.205 2.503-1.835 3.527-.203-.4-.378-.75-.416-1.03-.055-.422-.12-.68-.055-1.183s.36-1.22.356-1.276-.066-.312-.668-.318-1.123.115-1.183.274-.126.53-.252.893-1.588 3.625-1.97 4.47l-.487 1.013s-.005.017-.022.044l-.164.312c-.082.153-.17.3-.214.3-.033 0-.093-.394.01-.93.22-1.134.74-2.897.734-2.957 0-.033.098-.34-.34-.498-.427-.16-.58.104-.62.104s-.066.093-.066.093.476-1.982-.91-1.982c-.865 0-2.06.947-2.65 1.802l-2.015 1.1-.97.53-.066-.07c-1.676-1.79-4.775-3.056-4.644-5.46.05-.876.35-3.176 5.953-5.97 4.61-2.273 8.28-1.643 8.916-.246.91 1.993-1.966 5.696-6.73 6.232-1.818.203-2.77-.498-3.012-.76-.252-.274-.3-.3-.383-.236-.153.082-.055.33 0 .47.142.372.728 1.03 1.72 1.353.876.285 3.007.444 5.586-.553 2.886-1.117 5.142-4.222 4.48-6.824-.663-2.64-5.044-3.5-9.19-2.037C7.12 5.6 4.448 6.97 2.526 8.766.242 10.902-.12 12.758.03 13.536c.53 2.76 4.337 4.557 5.86 5.887l-.208.115c-.76.378-3.664 1.895-4.387 3.5-.82 1.818.13 3.122.76 3.297C4 26.877 6.02 25.902 7.1 24.292s.947-3.702.45-4.66c-.005-.01-.01-.022-.022-.033l.597-.35 1.1-.62c-.186.51-.323 1.117-.39 1.993-.082 1.03.34 2.366.893 2.892.246.23.537.236.723.236.646 0 .937-.537 1.26-1.172l.75-1.68s-.444 2.442.76 2.442c.438 0 .882-.57 1.08-.86 0 .006.01-.01.033-.05l.07-.115 1.156-2.17c.756-1.5 1.484-3.352 1.484-3.352a9.53 9.53 0 0 0 .29 1.21c.13.444.405.93.624 1.402l-.285.383-.46.59-1.407 1.763c-.115.28-.088.482.13.646.16.12.444.137.734.12.537-.038.915-.17 1.1-.252.3-.104.63-.263.947-.498.586-.433.942-1.052.91-1.867-.016-.45-.164-.898-.345-1.32l.16-.23c.926-1.353 1.643-2.837 1.643-2.837s.066.455.3 1.2c.11.383.334.8.53 1.205-.87.706-1.407 1.528-1.6 2.065-.345.997-.077 1.446.433 1.55.23.05.56-.06.8-.164a3.64 3.64 0 0 0 1.013-.52c.586-.433 1.15-1.035 1.117-1.85-.016-.372-.115-.74-.252-1.095.74-.307 1.692-.476 2.908-.334 2.607.307 3.122 1.933 3.023 2.618s-.646 1.057-.827 1.172-.24.153-.225.235c.022.12.1.115.263.093.214-.038 1.37-.553 1.418-1.813.082-1.6-1.45-3.368-4.162-3.352zm-20.1 6.78c-.865.942-2.07 1.298-2.6.997-.56-.323-.34-1.714.723-2.71.646-.608 1.48-1.172 2.032-1.517l.537-.323.06-.033.13-.082c.39 1.424.016 2.678-.893 3.67zm6.298-4.283c-.3.734-.93 2.612-1.314 2.508-.33-.088-.53-1.512-.066-2.92.236-.706.734-1.55 1.024-1.878.47-.526.99-.7 1.117-.487.16.28-.575 2.317-.76 2.777zm5.197 2.486c-.126.066-.247.1-.3.077-.038-.022.055-.1.055-.1l.91-1.02.51-.652v.07c0 .838-.81 1.402-1.172 1.632zm4.01-.915c-.093-.066-.077-.285.235-.97.12-.268.405-.717.893-1.15.055.175.093.345.088.504-.005 1.057-.76 1.45-1.216 1.616z" fill="#cd6799"/></g><defs><clipPath id="A"><path fill="#fff" d="M0 0h30v30H0z"/></clipPath></defs></svg>