<svg xmlns="http://www.w3.org/2000/svg" fill="none"><path fill="#34bdb2" fill-rule="evenodd" d="M28 2H2v26h26V2zM14.924 9.445c1.594-.028 2.813.6 4.185 1.395l1.98-2.562c-2.702-1.737-4.756-2.916-8.482-1.764-2.425.75-3.415 3.16-3.415 4.352-.148 2.033.73 3.76 2.892 4.642l.808.333 2.742 1.08c1 .353 2.027.985 1.802 2.165-.25 1.308-1.512 1.36-2.625 1.265s-2.033-.556-3.007-1.044l-1.267-.602c-.327.498-.682.92-1.037 1.34l-1.043 1.35c2.613 1.674 5.705 2.873 8.89 2.086 2.437-.602 3.97-2.43 4.15-4.978.14-2.002-1.046-3.563-3.358-4.527l-.978-.412-2.716-1.098c-.78-.287-1.53-.756-1.378-1.6.165-.907.948-1.403 1.86-1.42z"/></svg>