<svg xmlns="http://www.w3.org/2000/svg" width="24" height="24" fill="none"  ><path fill-rule="evenodd" d="M12.75 1.5a9.75 9.75 0 0 1 9.75 9.75A9.75 9.75 0 0 1 12.75 21 9.75 9.75 0 0 1 3 11.25a9.75 9.75 0 0 1 9.75-9.75zm7.34 6a8.29 8.29 0 0 0-4.58-4.014c.666 1.26 1.147 2.6 1.43 4.014h3.15zm.873 4.493L21 11.25c-.002-.76-.11-1.518-.32-2.25h-3.513l.082 1.5a15.17 15.17 0 0 1-.309 3h3.74a8.2 8.2 0 0 0 .285-1.508h-.002zm-5.302 0l.01-.076a13.56 13.56 0 0 0 .079-1.416 13.49 13.49 0 0 0-.114-1.5H9.864a13.23 13.23 0 0 0-.114 1.5 13.47 13.47 0 0 0 .35 3h5.3c.116-.498.203-1 .26-1.508zM15.374 7.5a13.46 13.46 0 0 0-1.883-4.455L12.75 3l-.468.022-.273.022-.01.015c-.887 1.355-1.52 2.86-1.873 4.44h5.247zm-6.815 0a14.94 14.94 0 0 1 1.449-4.021A8.29 8.29 0 0 0 5.409 7.5h3.15zM4.82 9a8.22 8.22 0 0 0-.319 2.25 8.22 8.22 0 0 0 .319 2.25h3.74c-.203-.987-.307-1.992-.31-3A15.57 15.57 0 0 1 8.333 9H4.82zm4.13 6H5.41a8.27 8.27 0 0 0 5.728 4.34c-.96-1.318-1.7-2.784-2.188-4.34zm3.8 3.966A13.41 13.41 0 0 0 14.967 15h-4.434c.508 1.438 1.258 2.78 2.217 3.966zM16.55 15c-.49 1.556-1.228 3.02-2.188 4.34 1.22-.246 2.368-.764 3.36-1.515s1.8-1.717 2.37-2.824h-3.54z" fill="#f4f4f4"/></svg>