<svg xmlns="http://www.w3.org/2000/svg" fill="none"><path fill-rule="evenodd" d="M15.938 1.875a12.19 12.19 0 0 1 12.188 12.188A12.19 12.19 0 0 1 15.938 26.25 12.19 12.19 0 0 1 3.75 14.063 12.19 12.19 0 0 1 15.938 1.875h0zm9.176 7.5c-1.203-2.338-3.25-4.132-5.724-5.017.833 1.575 1.434 3.263 1.787 5.018h3.938zm1.09 5.616l.045-.928c-.002-.95-.136-1.898-.4-2.812h-4.39l.103 1.875c-.004 1.26-.133 2.516-.386 3.75h4.674a10.25 10.25 0 0 0 .356-1.884h-.002zm-6.628 0l.01-.096c.064-.588.097-1.18.1-1.77-.013-.627-.06-1.253-.142-1.875H12.33c-.083.622-.13 1.248-.143 1.875.005 1.262.15 2.52.437 3.75h6.626c.144-.622.253-1.25.326-1.884h0zm-.36-5.616a16.83 16.83 0 0 0-2.353-5.569l-.926-.056-.585.028-.34.028-.01.02a16.82 16.82 0 0 0-2.342 5.55h6.56zm-8.518 0c.36-1.754.97-3.447 1.81-5.027-2.486.883-4.542 2.68-5.75 5.027H10.7zM6.024 11.25c-.263.915-.397 1.86-.4 2.813s.137 1.898.4 2.813H10.7c-.254-1.234-.384-2.5-.386-3.75 0-.63.043-1.254.103-1.875h-4.39zm5.164 7.5H6.763a10.34 10.34 0 0 0 7.161 5.424c-1.2-1.648-2.124-3.48-2.736-5.424zm4.75 4.958c1.2-1.483 2.136-3.16 2.77-4.957h-5.542a16.77 16.77 0 0 0 2.771 4.958zm4.75-4.957a18.8 18.8 0 0 1-2.736 5.424c1.524-.308 2.96-.955 4.2-1.894s2.252-2.146 2.96-3.53h-4.425z" fill="#f4f4f4"/></svg>